<?xml version="1.0" encoding="utf-8"?>
<!-- Generator: Adobe Illustrator 24.1.2, SVG Export Plug-In . SVG Version: 6.00 Build 0)  -->
<svg version="1.1" id="Layer_1" xmlns="http://www.w3.org/2000/svg" xmlns:xlink="http://www.w3.org/1999/xlink" x="0px" y="0px"
	 viewBox="0 0 512 512" style="enable-background:new 0 0 512 512;" xml:space="preserve">
<style type="text/css">
	.st0{fill:#FFE783;}
	.st1{fill:#FF8500;}
</style>
<g id="_x31_00_x25__1_">
	<rect x="138.85" y="20.48" class="st0" width="293" height="469.33"/>
	<rect x="73.85" y="20.48" class="st1" width="65" height="469.33"/>
	<g>
		<path d="M405.18-0.85H106.52c-23.53,0-42.67,19.14-42.67,42.67v426.67c0,23.53,19.14,42.67,42.67,42.67h298.67
			c23.53,0,42.67-19.14,42.67-42.67V41.82C447.85,18.28,428.72-0.85,405.18-0.85z M255.85,20.48h64 M127.85,489.82h-21.33
			c-11.76,0-21.33-9.57-21.33-21.33V41.82c0-11.76,9.57-21.33,21.33-21.33h21.33V489.82z M341.18,20.48h64
			c11.76,0,21.33,9.57,21.33,21.33v426.67h0c0,11.76-9.57,21.33-21.33,21.33h-256V20.48h85.33"/>
	</g>
</g>
</svg>
