<?xml version="1.0" encoding="iso-8859-1"?>
<!-- Generator: Adobe Illustrator 19.0.0, SVG Export Plug-In . SVG Version: 6.00 Build 0)  -->
<svg version="1.1" id="Layer_1" xmlns="http://www.w3.org/2000/svg" xmlns:xlink="http://www.w3.org/1999/xlink" x="0px" y="0px"
	 viewBox="0 0 512 512" style="enable-background:new 0 0 512 512;" xml:space="preserve">
<g>
	<g>
		<path d="M405.333,0H106.667C83.135,0,64,19.135,64,42.667v426.667C64,492.865,83.135,512,106.667,512h298.667
			C428.865,512,448,492.865,448,469.333V42.667C448,19.135,428.865,0,405.333,0z M256,21.333h64V134.25l-24.458-24.458
			c-2.083-2.083-4.813-3.125-7.542-3.125s-5.458,1.042-7.542,3.125L256,134.25V21.333z M128,490.667h-21.333
			c-11.76,0-21.333-9.573-21.333-21.333V42.667c0-11.76,9.573-21.333,21.333-21.333H128V490.667z M426.667,469.333
			c0,11.76-9.573,21.333-21.333,21.333h-256V21.333h85.333V160c0,4.313,2.594,8.208,6.583,9.854c3.99,1.656,8.573,0.74,11.625-2.313
			L288,132.417l35.125,35.125c2.042,2.042,4.771,3.125,7.542,3.125c1.375,0,2.76-0.26,4.083-0.813
			c3.99-1.646,6.583-5.542,6.583-9.854V21.333h64c11.76,0,21.333,9.573,21.333,21.333V469.333z"/>
	</g>
</g>
<g>
</g>
<g>
</g>
<g>
</g>
<g>
</g>
<g>
</g>
<g>
</g>
<g>
</g>
<g>
</g>
<g>
</g>
<g>
</g>
<g>
</g>
<g>
</g>
<g>
</g>
<g>
</g>
<g>
</g>
</svg>
