<?xml version="1.0" encoding="utf-8"?>
<!-- Generator: Adobe Illustrator 24.1.2, SVG Export Plug-In . SVG Version: 6.00 Build 0)  -->
<svg version="1.1" id="Layer_1" xmlns="http://www.w3.org/2000/svg" xmlns:xlink="http://www.w3.org/1999/xlink" x="0px" y="0px"
	 viewBox="0 0 512 512" style="enable-background:new 0 0 512 512;" xml:space="preserve">
<style type="text/css">
	.st0{fill:#FF8500;}
	.st1{fill:#FFE783;}
</style>
<rect x="74.02" y="20.48" class="st0" width="65" height="469.33"/>
<rect x="141" y="20.11" class="st1" width="293" height="469.33"/>
<polygon class="st0" points="329.85,160.15 287.85,113.15 240.35,160.15 240.35,16.48 329.85,16.48 "/>
<g>
	<g>
		<path d="M405.18-0.85H106.52c-23.53,0-42.67,19.14-42.67,42.67v426.67c0,23.53,19.14,42.67,42.67,42.67h298.67
			c23.53,0,42.67-19.14,42.67-42.67V41.82C447.85,18.28,428.72-0.85,405.18-0.85z M255.85,20.48h64V133.4l-24.46-24.46
			c-2.08-2.08-4.81-3.13-7.54-3.13s-5.46,1.04-7.54,3.13l-24.46,24.46V20.48z M127.85,489.82h-21.33
			c-11.76,0-21.33-9.57-21.33-21.33V41.82c0-11.76,9.57-21.33,21.33-21.33h21.33V489.82z M426.52,468.48
			c0,11.76-9.57,21.33-21.33,21.33h-256V20.48h85.33v138.67c0,4.31,2.59,8.21,6.58,9.85c3.99,1.66,8.57,0.74,11.63-2.31l35.12-35.12
			l35.13,35.13c2.04,2.04,4.77,3.13,7.54,3.13c1.38,0,2.76-0.26,4.08-0.81c3.99-1.65,6.58-5.54,6.58-9.85V20.48h64
			c11.76,0,21.33,9.57,21.33,21.33L426.52,468.48L426.52,468.48z"/>
	</g>
</g>
</svg>
