<?xml version="1.0" encoding="utf-8"?>
<!-- Generator: Adobe Illustrator 21.0.2, SVG Export Plug-In . SVG Version: 6.00 Build 0)  -->
<svg version="1.1" id="Layer_1" xmlns="http://www.w3.org/2000/svg" xmlns:xlink="http://www.w3.org/1999/xlink" x="0px" y="0px"
	 viewBox="0 0 512 512" style="enable-background:new 0 0 512 512;" xml:space="preserve">
<style type="text/css">
	.st0{display:none;}
	.st1{display:inline;fill:#F4F1E1;}
	.st2{display:inline;fill:#F4E5CB;}
	.st3{display:inline;fill:#FF7878;}
	.st4{display:inline;fill:#F4536F;}
	.st5{display:inline;}
	.st6{fill:#FFE36C;}
	.st7{display:inline;fill:#FFC46E;}
	.st8{display:inline;fill:#8389AA;}
	.st9{display:inline;fill:#646D91;}
</style>
<g>
	<g class="st0">
		<path class="st1" d="M504,256c0,137.2-111.1,248.5-248.2,248.5c-5.3,0-10.5-0.2-15.6-0.5C110.3,495.9,7.5,388,7.5,256
			C7.5,125.1,108.6,17.8,236.9,8.2c6.2-0.5,12.5-0.7,18.8-0.7c35.3,0,68.9,7.4,99.3,20.7l128.6,129.3C496.8,187.7,504,221,504,256
			L504,256z"/>
		<path class="st2" d="M504,256c0,137.2-111.1,248.5-248.2,248.5c-5.3,0-10.5-0.2-15.6-0.5C370.5,496.6,474,388.5,474,256.2
			c0-133.3-105.1-242.1-237.1-248c6.2-0.5,12.5-0.7,18.8-0.7c35.3,0,68.9,7.4,99.3,20.7l128.6,129.3C496.8,187.7,504,221,504,256
			L504,256z"/>
		<path class="st3" d="M448.1,256c0,106.4-86.1,192.6-192.4,192.6c-1.5,0-3,0-4.6,0C147,446.1,63.3,360.9,63.3,256
			c0-102.1,79.4-185.7,179.8-192.2c4.2-0.3,8.4-0.4,12.6-0.4c20.7,0,40.7,3.3,59.4,9.4l123.9,124.6C445,215.8,448.1,235.5,448.1,256
			L448.1,256z"/>
		<path class="st4" d="M448.1,256c0,106.4-86.1,192.6-192.4,192.6c-1.5,0-3,0-4.6,0c93.6-13.8,165.5-94.4,165.5-191.9
			c0-100.2-76-182.7-173.6-192.9c4.2-0.3,8.4-0.4,12.6-0.4c20.7,0,40.7,3.3,59.4,9.4l123.9,124.6C445,215.8,448.1,235.5,448.1,256
			L448.1,256z"/>
		<path class="st1" d="M386.6,256c0,72.4-58.6,131-130.9,131c-6.4,0-12.8-0.5-19-1.4c-63.3-9.2-111.9-63.8-111.9-129.7
			c0-65.3,47.8-119.5,110.3-129.4c6.7-1.1,13.6-1.6,20.6-1.6c17.6,0,34.4,3.5,49.7,9.8l71.6,71.9C383.2,221.9,386.6,238.6,386.6,256
			L386.6,256z"/>
		<path class="st2" d="M386.6,256c0,72.4-58.6,131-130.9,131c-6.4,0-12.8-0.5-19-1.4c66.7-5.5,119.2-61.4,119.2-129.5
			c0-68.7-53.3-124.9-120.8-129.6c6.7-1.1,13.6-1.6,20.6-1.6c17.6,0,34.4,3.5,49.7,9.8l71.6,71.9C383.2,221.9,386.6,238.6,386.6,256
			L386.6,256z"/>
		<path class="st3" d="M324.6,256c0,38-30.8,68.9-68.8,68.9c-3.7,0-7.3-0.3-10.8-0.9c-32.9-5.2-58-33.7-58-68
			c0-34.8,25.7-63.5,59.1-68.2c3.2-0.4,6.4-0.7,9.7-0.7c16.1,0,30.9,5.6,42.7,14.9l14.3,15.4C320.2,228.3,324.6,241.7,324.6,256
			L324.6,256z"/>
		<path class="st4" d="M324.6,256c0,38-30.8,68.9-68.8,68.9c-3.7,0-7.3-0.3-10.8-0.9c28.1-10,48.3-36.8,48.3-68.3
			c0-31.1-19.6-57.7-47.1-67.9c3.2-0.4,6.4-0.7,9.7-0.7c16.1,0,30.9,5.6,42.7,14.9l14.3,15.4C320.2,228.3,324.6,241.7,324.6,256
			L324.6,256z"/>
		<g class="st5">
			<path class="st6" d="M504.5,127.5c0,0-70.3,127.1-155.2,65.1l9-14.5l17.6-28.6l55.7-33c26.8,12.8,59,12,69.5,11.3
				C503.3,127.6,504.5,127.5,504.5,127.5z"/>
			<path class="st6" d="M384.8,7.6c0,0-130.8,72.5-62.1,159.2l44.1-17.5l31.5-63.9C379.7,52.3,384.8,7.6,384.8,7.6L384.8,7.6z"/>
		</g>
		<path class="st7" d="M504.5,127.5c0,0-70.3,127.1-155.2,65.1l9-14.5c68.7,17.1,142.8-50.3,142.8-50.3
			C503.3,127.6,504.5,127.5,504.5,127.5L504.5,127.5z"/>
		<path class="st8" d="M459.6,83.7c0,0-94.7,100.7-203.9,175.9c0.6-0.9,1.3-1.8,1.9-2.7C332.6,148.7,431.4,55.5,431.4,55.5
			s3.5,8.4,11.4,16.6C447.1,76.5,452.7,80.8,459.6,83.7L459.6,83.7z"/>
		<path class="st9" d="M459.6,83.7c0,0-94.7,100.7-203.9,175.9c0.6-0.9,1.3-1.8,1.9-2.7L442.9,72.1
			C447.1,76.5,452.7,80.8,459.6,83.7L459.6,83.7z"/>
	</g>
	<g>
		<path d="M393.9,453.4c-40.6,28.5-88.4,43.6-138.2,43.6c-64.3,0-124.8-25.1-170.2-70.6C40,380.9,15,320.4,15,256
			c0-55.4,19.2-109.5,54.1-152.3c2.6-3.2,2.1-7.9-1.1-10.6c-3.2-2.6-7.9-2.1-10.6,1.1C20.4,139.7,0,197.2,0,256
			c0,68.4,26.6,132.7,74.9,181c48.3,48.4,112.5,75,180.8,75c52.9,0,103.7-16,146.8-46.4c3.4-2.4,4.2-7.1,1.8-10.4
			C402,451.8,397.3,451,393.9,453.4z"/>
		<path d="M511.1,131.1c1.4-2.5,1.2-5.5-0.3-7.8s-4.3-3.6-7.1-3.3c-0.4,0-33.2,3.5-62-7.4c14.6-14.5,23.2-23.5,23.4-23.8
			c1.7-1.8,2.4-4.3,1.9-6.7c-0.5-2.4-2.2-4.4-4.5-5.4c-16.7-6.9-24.1-24-24.1-24.2c-0.9-2.3-2.9-3.9-5.4-4.5
			c-2.4-0.5-4.9,0.2-6.7,1.9c-0.1,0.1-9.7,9.2-25,24.7c-12.9-29.6-9.1-65.9-9.1-66.3c0.3-2.8-1-5.5-3.3-7.1
			c-2.3-1.6-5.3-1.7-7.8-0.3c-0.6,0.3-12.5,7-27.2,18.5C322.8,6.6,289.8,0,255.7,0c-65,0-127,24.4-174.5,68.8
			c-3,2.8-3.2,7.6-0.4,10.6c1.5,1.6,3.5,2.4,5.5,2.4c1.8,0,3.7-0.7,5.1-2C136.2,38,194.5,15,255.7,15c29.4,0,58,5.2,85.1,15.5
			c-12.1,10.9-21.8,22.1-29.1,33.4c-18.1-5.3-36.9-8-56-8C145.5,55.9,55.8,145.7,55.8,256s89.7,200.1,199.9,200.1
			S455.6,366.3,455.6,256c0-18.8-2.6-37.4-7.7-55.3c12.8-8.3,24.1-18.7,33.4-29c10,26.9,15.1,55.2,15.1,84.3
			c0,34.2-7,67.3-20.8,98.2c-13.4,29.9-32.4,56.4-56.5,78.8c-3,2.8-3.2,7.6-0.4,10.6c1.5,1.6,3.5,2.4,5.5,2.4c1.8,0,3.6-0.7,5.1-2
			c25.6-23.7,45.9-51.9,60-83.7c14.7-32.9,22.1-68,22.1-104.4c0-33.7-6.4-66.4-19.1-97.3C503.7,144.1,510.4,132.3,511.1,131.1
			L511.1,131.1z M311.5,102.3c7.4-37.3,45.5-67.4,65.2-80.8c0,16,2,42.2,13.5,64.6c-5.6,5.8-11.6,12.1-18,19
			c-2.8,3-2.7,7.8,0.4,10.6c3,2.8,7.8,2.7,10.6-0.4c20.8-22.2,37.7-39.1,46.6-47.8c3.7,5.5,9.5,12.5,17.7,18
			C427.2,106.3,364.2,169,289.3,226c21.1-27.8,45-56.6,71.4-86.1c2.8-3.1,2.5-7.8-0.6-10.6c-3.1-2.8-7.8-2.5-10.6,0.6
			c-8.4,9.3-16.5,18.6-24.3,27.8C312.3,139.7,307.7,121.1,311.5,102.3L311.5,102.3z M250.4,264.9c1.4,1.4,3.4,2.2,5.3,2.2
			c1.5,0,3-0.4,4.3-1.3c17.3-11.9,34.3-24.5,50.6-37.3c4.3,8.5,6.5,17.9,6.5,27.5c0,33.9-27.5,61.4-61.3,61.4s-61.3-27.5-61.3-61.4
			s27.5-61.4,61.3-61.4c11.4,0,22.3,3.1,31.9,8.9c-13.8,17.6-26.5,34.9-38.1,51.8C247.5,258.3,247.9,262.3,250.4,264.9z
			 M255.7,441.1c-102,0-184.9-83-184.9-185.1S153.8,70.9,255.7,70.9c16.5,0,32.7,2.2,48.5,6.4c-3.5,7.3-6,14.7-7.4,22
			c-1.6,8-2,16-1.1,23.9c-12.9-3.9-26.2-5.8-39.9-5.8c-76.3,0-138.4,62.1-138.4,138.5c0,4.1,3.4,7.5,7.5,7.5c4.1,0,7.5-3.4,7.5-7.5
			c0-68.1,55.4-123.5,123.4-123.5c15.1,0,29.7,2.7,43.6,7.9c3.3,9.9,8.6,19.6,15.8,29c-6.2,7.5-12.3,14.9-18.2,22.3
			c-12.3-7.9-26.4-12.1-41.2-12.1c-42.1,0-76.3,34.3-76.3,76.4s34.2,76.4,76.3,76.4s76.3-34.3,76.3-76.4c0-13-3.3-25.7-9.5-37
			c8.1-6.5,16-13,23.7-19.4c8.2,5.8,16.6,10.2,25.1,13.2c5.2,13.8,7.8,28.3,7.8,43.3c0,68.1-55.4,123.5-123.4,123.5
			c-56.6,0-105.7-38.3-119.6-93.1c-1-4-5.1-6.4-9.1-5.4c-4,1-6.4,5.1-5.4,9.1c15.6,61.5,70.7,104.4,134.2,104.4
			c76.3,0,138.4-62.1,138.4-138.5c0-13.5-1.9-26.7-5.7-39.4c2.9,0.3,5.7,0.5,8.6,0.5c5.7,0,11.5-0.6,17.3-1.9c7-1.5,13.6-3.9,20-6.9
			c4.1,15.5,6.2,31.5,6.2,47.7C440.6,358.1,357.7,441.1,255.7,441.1L255.7,441.1z M472.9,158.5c-14,16.1-36.1,36.4-61.8,42
			c-18,4-35.8,0.2-53-11c28.6-24.5,53.4-47.7,71.9-65.5c21.3,9.7,45.2,11.6,60.3,11.6h0.3C486.3,141.9,480.3,150.1,472.9,158.5z"/>
	</g>
</g>
</svg>
