<?xml version="1.0" encoding="utf-8"?>
<!-- Generator: Adobe Illustrator 24.1.2, SVG Export Plug-In . SVG Version: 6.00 Build 0)  -->
<svg version="1.1" id="Layer_1" xmlns="http://www.w3.org/2000/svg" xmlns:xlink="http://www.w3.org/1999/xlink" x="0px" y="0px"
	 viewBox="0 0 512 512" style="enable-background:new 0 0 512 512;" xml:space="preserve">
<style type="text/css">
	.st0{fill:#FFE783;}
	.st1{fill:#FF8500;}
	.st2{fill:#CE0909;}
</style>
<g>
	<rect x="145" y="10" class="st0" width="292.44" height="487.39"/>
	<rect x="81" y="10" class="st1" width="60" height="487.39"/>
	<path class="st2" d="M330.67,170.67c-28-56.09-56.89-56.09-86.67,0V15h86.67V170.67z"/>
	<g>
		<path d="M405.33,0H106.67C83.14,0,64,19.14,64,42.67v426.67C64,492.86,83.14,512,106.67,512h298.67
			c23.53,0,42.67-19.14,42.67-42.67V42.67C448,19.14,428.86,0,405.33,0z M256,21.33h64v112.92l-24.46-24.46
			c-2.08-2.08-4.81-3.13-7.54-3.13s-5.46,1.04-7.54,3.13L256,134.25V21.33z M128,490.67h-21.33c-11.76,0-21.33-9.57-21.33-21.33
			V42.67c0-11.76,9.57-21.33,21.33-21.33H128V490.67z M426.67,469.33c0,11.76-9.57,21.33-21.33,21.33h-256V21.33h85.33V160
			c0,4.31,2.59,8.21,6.58,9.85c3.99,1.66,8.57,0.74,11.63-2.31L288,132.42l35.13,35.13c2.04,2.04,4.77,3.13,7.54,3.13
			c1.38,0,2.76-0.26,4.08-0.81c3.99-1.65,6.58-5.54,6.58-9.85V21.33h64c11.76,0,21.33,9.57,21.33,21.33L426.67,469.33L426.67,469.33
			z"/>
	</g>
</g>
</svg>
