<?xml version="1.0" encoding="utf-8"?>
<!-- Generator: Adobe Illustrator 24.1.2, SVG Export Plug-In . SVG Version: 6.00 Build 0)  -->
<svg version="1.1" xmlns="http://www.w3.org/2000/svg" xmlns:xlink="http://www.w3.org/1999/xlink" x="0px" y="0px"
	 viewBox="0 0 3710 3710" style="enable-background:new 0 0 3710 3710;" xml:space="preserve">
<style type="text/css">
	.st0{fill:#FFFFFF;}
	.st1{opacity:0.3;fill:url(#SVGID_1_);}
	.st2{fill:url(#SVGID_2_);}
	.st3{opacity:0.26;fill:#FFFFFF;}
	.st4{opacity:0.68;}
	.st5{fill:url(#SVGID_3_);}
	.st6{opacity:0.47;fill:#FFFFFF;}
	.st7{opacity:0.3;}
	.st8{fill:url(#SVGID_4_);}
	.st9{fill:url(#SVGID_5_);}
	.st10{fill:url(#SVGID_6_);}
	.st11{fill:url(#SVGID_7_);}
	.st12{fill:url(#SVGID_8_);}
	.st13{fill:url(#SVGID_9_);}
	.st14{opacity:0.56;fill:#FFFFFF;}
	.st15{fill:url(#SVGID_10_);}
	.st16{fill:url(#SVGID_11_);}
	.st17{fill:url(#SVGID_12_);}
	.st18{fill:url(#SVGID_13_);}
	.st19{fill:url(#SVGID_14_);}
	.st20{fill:url(#SVGID_15_);}
	.st21{fill:url(#SVGID_16_);}
	.st22{fill:url(#SVGID_17_);}
	.st23{fill:url(#SVGID_18_);}
	.st24{fill:url(#SVGID_19_);}
	.st25{fill:url(#SVGID_20_);}
	.st26{fill:url(#SVGID_21_);}
	.st27{fill:url(#SVGID_22_);}
	.st28{fill:url(#SVGID_23_);}
	.st29{fill:url(#SVGID_24_);}
	.st30{fill:url(#SVGID_25_);}
	.st31{fill:url(#SVGID_26_);}
	.st32{fill:#D44613;}
	.st33{fill:#77160C;}
	.st34{opacity:0.1;}
	.st35{opacity:0.2;}
	.st36{fill:#630E0A;}
	.st37{opacity:0.15;}
	.st38{fill:#FCE0D9;}
	.st39{fill:#4D0F05;}
	.st40{fill:#BF340A;}
	.st41{fill:#EFC3BD;}
	.st42{opacity:0.5;}
	.st43{fill:#ED0A0A;}
	.st44{fill:#C60000;}
	.st45{fill:#EAE8E8;}
	.st46{fill:#A02924;}
	.st47{opacity:0.07;}
</style>
<g id="Background">
	<g>
		<g>
			<rect class="st0" width="3710" height="3710"/>
		</g>
	</g>
</g>
<g id="Illustration">
	<g>
		<linearGradient id="SVGID_1_" gradientUnits="userSpaceOnUse" x1="3437.2336" y1="3604.189" x2="1520.5822" y2="1563.8831">
			<stop  offset="0" style="stop-color:#B37CFF"/>
			<stop  offset="1" style="stop-color:#F895E7"/>
		</linearGradient>
		<path class="st1" d="M2861.76,2785.63c-70.75,72.93-134.06,115.8-182.54,148.17c-472.73,315.65-1013.12,224.67-1180.19,193.58
			c-269.55-50.17-497.09-85.56-692.59-262.19c-444.23-401.34-422.62-1238.58-83.18-1757.21c40.25-61.49,379.18-563.9,920.74-634.69
			c13.25-1.73,23.13-2.72,31.78-3.63c83.78-8.87,602.93-55.68,1026.25,298.97c60.6,50.77,158.11,142.34,248.54,282
			C3281.22,1561.28,3282.27,2352.18,2861.76,2785.63z"/>
		<g>
			<linearGradient id="SVGID_2_" gradientUnits="userSpaceOnUse" x1="1160.0295" y1="959.3921" x2="4020.1287" y2="4223.7432">
				<stop  offset="0" style="stop-color:#FDF53F"/>
				<stop  offset="0.7786" style="stop-color:#E57A58"/>
				<stop  offset="1" style="stop-color:#D93C65"/>
			</linearGradient>
			<path class="st2" d="M3115.27,1824.84c-27.96,636.94-607.97,1128.81-1295.48,1098.63
				c-687.51-30.18-1222.18-570.99-1194.22-1207.92c27.96-636.94,607.97-1128.81,1295.47-1098.63
				C2608.56,647.1,3143.23,1187.91,3115.27,1824.84z"/>
			<ellipse class="st3" cx="1802.98" cy="1686.91" rx="977.76" ry="923.67"/>
			<g class="st4">
				<path class="st0" d="M2190.9,1775.77c-0.11,101.89-3.85,203.79-11.77,305.4c-8.15,101.59-20.64,202.88-38.71,303.25
					c-18.45,100.24-41.95,199.94-77.48,295.92c-18.02,47.81-38.92,94.94-67.29,138.06c-14.3,21.41-30.52,41.94-50.59,58.86
					c-10.03,8.41-21.06,15.88-33.22,21.35c-12.13,5.44-25.41,8.89-38.89,9.12c-13.46,0.38-26.94-2.22-39.32-7.2
					c-12.42-4.92-23.72-12.06-34-20.19c-20.55-16.4-37.13-36.71-51.68-57.95c-28.87-42.82-50.06-89.86-68.26-137.59
					c-18.09-47.85-32.83-96.82-45.6-146.23c-12.74-49.42-23.44-99.32-32.66-149.47c-18.4-100.32-30.99-201.59-39.52-303.15
					c-8.47-101.58-12.77-203.48-13.4-305.4c-0.3-50.95,1.26-101.9,3.13-152.81c1.99-50.91,4.87-101.78,8.7-152.59
					c7.69-101.6,19.11-202.96,36-303.49c8.48-50.25,18.34-100.29,30.2-149.89c11.89-49.58,25.69-98.77,42.79-146.9
					c17.28-47.98,37.41-95.38,65.43-138.5c14.1-21.4,30.3-41.83,50.5-58.21c10.1-8.12,21.23-15.18,33.44-19.96
					c12.16-4.85,25.36-7.29,38.48-6.78c13.13,0.38,26.07,3.61,38.01,8.86c11.95,5.26,22.93,12.42,33,20.52
					c20.14,16.32,36.79,36.25,51.57,57.18c29.37,42.14,51.52,88.6,70.71,135.86c37.9,94.92,63.59,194.06,83.83,293.92
					c19.89,100.01,33.79,201.13,42.99,302.63C2186.24,1571.94,2190.6,1673.85,2190.9,1775.77z M2171.52,1775.77
					c0.25-101.39-3.55-202.81-11.91-303.85c-8.2-101.04-20.63-201.8-39.25-301.45c-18.71-99.54-42.88-198.43-79.11-292.98
					c-18.34-47.07-39.63-93.32-67.88-135.07c-14.2-20.73-30.22-40.41-49.42-56.42c-19.02-15.87-42.13-28.06-66.94-28.83
					c-12.31-0.38-24.59,2.12-35.97,6.82c-11.42,4.66-21.92,11.51-31.49,19.43c-19.15,15.97-34.7,36.07-48.2,57.22
					c-26.86,42.63-46.15,89.77-62.59,137.53c-16.27,47.91-29.29,96.93-40.4,146.35c-11.09,49.44-20.2,99.33-27.93,149.43
					c-30.59,200.55-40.42,403.85-39.67,606.58c-0.39,101.38,2.89,202.8,10.31,303.92c7.48,101.1,19,201.95,36.3,301.81
					c8.67,49.92,18.8,99.58,30.95,148.72c12.17,49.13,26.3,97.79,43.7,145.22c17.49,47.3,37.96,93.83,65.59,135.68
					c13.9,20.75,29.72,40.41,48.83,55.96c18.91,15.47,42.07,26.47,66.21,25.64c24.12-0.66,46.73-12.62,65.24-28.63
					c18.7-16.09,34.18-36,47.84-56.93c27.15-42.18,47.32-88.82,64.61-136.2c34.13-95.17,56.48-194.41,73.78-294.17
					c17.21-99.87,28.58-200.73,36.16-301.83C2168.02,1978.62,2171.58,1877.19,2171.52,1775.77z"/>
				<path class="st0" d="M2704.84,1775.77c-0.77,131.33-17.7,262.7-52.92,389.34c-35.89,126.33-90,247.81-163.34,356.85
					c-73.23,108.81-166.49,205.32-277.92,275.32c-55.68,34.84-115.81,62.73-178.76,81.64c-62.91,18.96-128.58,28.83-194.3,28.87
					c-65.72,0.04-131.41-9.76-194.37-28.65c-62.99-18.84-123.19-46.67-178.94-81.47c-111.59-69.9-205.06-166.35-278.5-275.17
					c-73.53-109.06-127.79-230.61-163.89-357.01c-17.74-63.33-30.97-127.9-39.71-193.07c-8.68-65.18-13.05-130.9-13.36-196.65
					c0.37-65.75,4.79-131.47,13.52-196.63c8.79-65.15,22.08-129.7,39.88-193c36.22-126.34,90.59-247.78,164.17-356.7
					c73.48-108.67,166.93-205,278.46-274.67c55.73-34.68,115.91-62.24,178.76-81.08c62.81-18.92,128.37-28.78,193.98-28.81
					c65.61,0.1,131.15,10.03,193.91,29.01c62.81,18.9,122.92,46.53,178.57,81.26c111.37,69.77,204.61,166.16,277.88,274.83
					c73.4,108.9,127.62,230.27,163.62,356.53C2686.91,1513.1,2703.96,1644.44,2704.84,1775.77z M2682.62,1775.77
					c-0.1-129.41-16.14-258.98-50.2-383.93c-34.19-124.77-85.67-245.29-156.7-353.71c-35.49-54.15-75.82-105.21-121-151.63
					c-45.21-46.34-95.14-88.32-149.8-123.17c-54.73-34.65-113.83-62.58-175.83-81.45c-61.97-18.87-126.67-28.8-191.49-29.03
					c-64.82,0.3-129.5,10.3-191.43,29.23c-61.96,18.93-120.99,46.93-175.65,81.63c-54.59,34.91-104.42,76.92-149.53,123.29
					c-45.09,46.45-85.31,97.52-120.69,151.67c-70.84,108.4-122.17,228.85-156.15,353.54c-16.96,62.41-29.18,126.05-37.49,190.14
					c-8.34,64.1-12.44,128.74-12.56,193.41c0.17,64.66,4.32,129.3,12.71,193.39c8.37,64.08,20.66,127.69,37.66,190.07
					c34.09,124.63,85.53,244.97,156.43,353.22c35.4,54.09,75.63,105.08,120.71,151.45c45.11,46.28,94.9,88.25,149.47,123.01
					c54.64,34.58,113.65,62.32,175.47,81.24c61.78,18.97,126.33,29.02,191.04,29.39c64.71-0.3,129.28-10.28,191.11-29.17
					c61.86-18.85,120.94-46.53,175.65-81.07c54.65-34.72,104.53-76.64,149.74-122.89c45.18-46.34,85.51-97.32,121.02-151.41
					c71.09-108.27,122.68-228.69,156.98-353.39C2666.26,2034.72,2682.41,1905.18,2682.62,1775.77z"/>
				<path class="st0" d="M828.48,1327.95c86.57-1.25,173.13-1.79,259.7-2.7l259.7-1.53c86.57-0.65,173.13-0.58,259.7-0.78
					l259.7-0.45l519.4,1.36l259.7,1.67c86.57,0.99,173.13,1.57,259.7,2.91c0.54,0.01,0.97,0.45,0.97,1
					c-0.01,0.53-0.44,0.96-0.97,0.96c-86.57,1.34-173.13,1.92-259.7,2.91l-259.7,1.67l-519.4,1.36l-259.7-0.45
					c-86.57-0.2-173.13-0.13-259.7-0.78l-259.7-1.53c-86.57-0.91-173.13-1.45-259.7-2.7c-0.81-0.01-1.45-0.67-1.44-1.48
					C827.05,1328.6,827.69,1327.97,828.48,1327.95z"/>
				<path class="st0" d="M1129.76,892.98c61.46-1.25,122.92-1.79,184.38-2.7l184.38-1.53c61.46-0.65,122.92-0.58,184.38-0.78
					l184.38-0.45l184.38,0.51c61.46,0.31,122.92,0.14,184.38,0.84l184.38,1.67c61.46,0.99,122.92,1.57,184.38,2.91
					c0.54,0.01,0.97,0.46,0.96,1c-0.01,0.53-0.44,0.95-0.96,0.96c-61.46,1.34-122.92,1.92-184.38,2.91L2236.05,900
					c-61.46,0.7-122.92,0.53-184.38,0.84l-184.38,0.51l-184.38-0.45c-61.46-0.2-122.92-0.13-184.38-0.78l-184.38-1.53
					c-61.46-0.91-122.92-1.44-184.38-2.7c-0.81-0.02-1.45-0.68-1.43-1.49C1128.35,893.62,1128.99,892.99,1129.76,892.98z"/>
				<path class="st0" d="M738.23,1762.93l282.26-2.7l282.26-1.53c94.09-0.65,188.18-0.58,282.26-0.78l282.26-0.45l564.53,1.36
					l282.26,1.67c94.09,0.99,188.18,1.57,282.26,2.91c0.54,0.01,0.97,0.45,0.97,1c-0.01,0.53-0.44,0.96-0.97,0.97
					c-94.09,1.34-188.18,1.92-282.26,2.91l-282.26,1.67l-564.53,1.36l-282.26-0.45c-94.09-0.2-188.18-0.13-282.26-0.78l-282.26-1.53
					l-282.26-2.7c-0.81-0.01-1.45-0.67-1.45-1.47C736.79,1763.58,737.44,1762.94,738.23,1762.93z"/>
				<path class="st0" d="M828.48,2197.91c86.57-1.25,173.13-1.79,259.7-2.7l259.7-1.53c86.57-0.65,173.13-0.58,259.7-0.78
					l259.7-0.45l519.4,1.36l259.7,1.67c86.57,0.99,173.13,1.57,259.7,2.91c0.54,0.01,0.97,0.45,0.97,1
					c-0.01,0.53-0.44,0.96-0.97,0.96c-86.57,1.34-173.13,1.92-259.7,2.91l-259.7,1.67l-519.4,1.36l-259.7-0.45
					c-86.57-0.2-173.13-0.13-259.7-0.78l-259.7-1.53c-86.57-0.91-173.13-1.44-259.7-2.7c-0.81-0.01-1.45-0.68-1.44-1.48
					C827.05,2198.56,827.69,2197.92,828.48,2197.91z"/>
				<path class="st0" d="M2641.97,2639.47H1166.93c-2.83,0-5.12-2.29-5.12-5.12c0-2.83,2.29-5.12,5.12-5.12h1475.05
					c2.83,0,5.12,2.29,5.12,5.12C2647.09,2637.18,2644.8,2639.47,2641.97,2639.47z"/>
			</g>
		</g>
		<g>
			<linearGradient id="SVGID_3_" gradientUnits="userSpaceOnUse" x1="1467.5254" y1="514.4747" x2="1325.1545" y2="1592.4288">
				<stop  offset="0" style="stop-color:#A737D5"/>
				<stop  offset="1" style="stop-color:#EF497A"/>
			</linearGradient>
			<path class="st5" d="M1661.55,1846.11c36.66,196.41,61.32,348.83,76.94,453.07c1.13,7.54,8.06,12.8,15.63,11.88l0,0
				c9.92-1.21,17.02-10.17,15.93-20.1c-28.34-258.74-88.53-746.81-165.45-1014.57c-176.55-614.6-480.78-298.07-659.6-634.11
				c-7.13-13.4-27.26-10.53-30.29,4.35c-27.44,134.93-76.45,535.85,260.87,703.07C1584.31,1552.34,1587.47,1449.18,1661.55,1846.11z
				"/>
			<path class="st6" d="M940.84,691.75c5.06,22.21,14.18,44.06,25.4,64.14c11.5,20.04,24.69,39.03,39.83,56.39
				c30.27,34.76,67.27,63.16,107.18,86.23c19.79,12.05,40.93,21.16,62.11,31.14l32.58,14.86c10.77,5.16,21.35,10.75,32.03,16.1
				c42.29,22.27,83.25,47.44,121.31,76.71c37.71,29.7,72.62,62.98,103.57,99.69l22.21,28.32c3.86,4.6,6.97,9.75,10.37,14.69
				l10.02,14.93l10.01,14.92l8.92,15.59c5.84,10.45,12.02,20.72,17.56,31.31l15.4,32.39c2.44,5.45,5.41,10.67,7.41,16.31l6.51,16.68
				c4.28,11.14,8.8,22.2,12.64,33.48l10.43,34.2l5.2,17.08l4.1,17.37l8.13,34.73c1.49,5.76,2.47,11.62,3.42,17.48l2.88,17.58
				l5.72,35.13c0.37,2.24-1.16,4.36-3.4,4.73c-2.18,0.35-4.24-1.07-4.69-3.2l-0.05-0.25l-7.29-34.55l-3.63-17.26
				c-1.14-5.77-2.3-11.52-3.98-17.16l-9.2-34l-4.62-16.98l-5.71-16.64l-11.39-33.24c-4.13-10.95-9.03-21.59-13.37-32.44l-6.7-16.2
				c-2.07-5.47-5.08-10.51-7.57-15.79l-15.68-31.31c-5.61-10.22-11.85-20.08-17.74-30.14l-8.98-14.99l-10.04-14.3l-10.03-14.29
				c-3.4-4.72-6.5-9.66-10.34-14.04l-22.09-27c-30.68-34.94-64.53-67.02-101.43-95.38c-37.29-27.86-76.96-52.51-118.36-74.06
				c-10.46-5.2-20.79-10.64-31.34-15.65l-31.95-14.47c-21.51-10.24-43.71-20.18-64.24-32.91c-41.41-24.74-79.55-55.97-109.67-94.04
				c-7.2-9.77-14.59-19.36-20.72-29.84c-3.25-5.11-6.47-10.22-9.16-15.67c-2.68-5.44-5.81-10.61-8.09-16.24
				c-5-11.01-9.44-22.26-12.97-33.81c-3.74-11.52-6.21-23.24-7.5-35.58c-0.2-1.92,1.19-3.65,3.12-3.85c1.78-0.19,3.39,1,3.78,2.71
				L940.84,691.75z"/>
		</g>
		<g>
			<g>
				<g class="st7">
					
						<linearGradient id="SVGID_4_" gradientUnits="userSpaceOnUse" x1="-1532.9802" y1="829.0922" x2="-961.9523" y2="829.0922" gradientTransform="matrix(-0.998 0.0633 0.0633 0.998 1285.0391 -41.4726)">
						<stop  offset="0" style="stop-color:#B37CFF"/>
						<stop  offset="1" style="stop-color:#F895E7"/>
					</linearGradient>
					<path class="st8" d="M2868.63,914.67c-5.53-0.23-9.82-4.89-9.59-10.41c0.44-10.73,0.42-21.64-0.06-32.43
						c-0.24-5.46,3.93-10.09,9.36-10.43c0.06,0,0.13-0.01,0.19-0.01c5.52-0.24,10.2,4.04,10.44,9.56
						c0.5,11.35,0.52,22.84,0.06,34.14c-0.21,5.17-4.31,9.26-9.36,9.58C2869.33,914.68,2868.98,914.69,2868.63,914.67z
						 M2853.04,819.48c-1.94-10.62-4.36-21.25-7.18-31.62c-1.45-5.33,1.69-10.84,7.03-12.29c5.36-1.44,10.84,1.69,12.29,7.03
						c2.97,10.9,5.52,22.1,7.56,33.27c1,5.44-2.61,10.66-8.05,11.65c-0.4,0.07-0.79,0.12-1.18,0.15
						C2858.52,827.98,2853.97,824.52,2853.04,819.48z M2828.51,738.15c-4.25-9.89-8.97-19.72-14.06-29.21
						c-2.61-4.87-0.77-10.94,4.1-13.55c4.87-2.6,10.94-0.77,13.55,4.1c5.35,10,10.33,20.35,14.8,30.76
						c2.18,5.08-0.17,10.97-5.25,13.15c-1.08,0.46-2.2,0.72-3.32,0.79C2834.24,744.45,2830.23,742.14,2828.51,738.15z
						 M2786.4,664.34c-6.36-8.7-13.17-17.23-20.24-25.34c-3.63-4.17-3.2-10.49,0.97-14.12c4.17-3.63,10.49-3.19,14.12,0.97
						c7.44,8.55,14.61,17.52,21.31,26.68c3.26,4.46,2.29,10.73-2.18,13.99c-1.6,1.17-3.42,1.79-5.26,1.91
						C2791.83,668.64,2788.5,667.21,2786.4,664.34z M2728.91,601.76c-8.11-7.06-16.64-13.86-25.35-20.23
						c-4.46-3.27-5.43-9.53-2.17-13.99c3.26-4.47,9.53-5.44,13.99-2.17c9.16,6.7,18.14,13.86,26.67,21.29
						c4.17,3.63,4.61,9.95,0.98,14.12c-1.83,2.1-4.34,3.26-6.92,3.42C2733.57,604.36,2730.97,603.56,2728.91,601.76z
						 M2658.99,553.46c-9.48-5.1-19.31-9.84-29.19-14.12c-5.07-2.19-7.41-8.09-5.22-13.16c2.19-5.08,8.08-7.41,13.16-5.22
						c10.4,4.5,20.74,9.5,30.72,14.86c4.87,2.62,6.7,8.68,4.08,13.56c-1.7,3.16-4.86,5.04-8.19,5.25
						C2662.55,554.75,2660.7,554.38,2658.99,553.46z M2287.27,548.8c-2.6-4.88-0.76-10.94,4.12-13.54
						c9.99-5.33,20.36-10.29,30.8-14.75c5.09-2.17,10.97,0.19,13.14,5.27c2.17,5.08-0.19,10.96-5.27,13.14
						c-9.91,4.23-19.75,8.95-29.24,14.01c-1.3,0.69-2.69,1.07-4.07,1.16C2292.95,554.33,2289.18,552.38,2287.27,548.8z
						 M2580.16,521.88c-10.37-2.86-21-5.3-31.58-7.25c-5.44-1.01-9.03-6.23-8.03-11.66c1.01-5.44,6.23-9,11.67-8.02
						c11.14,2.06,22.33,4.63,33.26,7.64c5.33,1.47,8.46,6.98,6.99,12.31c-1.16,4.23-4.87,7.07-9.02,7.34
						C2582.37,522.29,2581.26,522.18,2580.16,521.88z M2367.54,514.61c-1.44-5.34,1.71-10.83,7.05-12.28
						c10.93-2.95,22.14-5.48,33.3-7.5c5.44-1.01,10.65,2.63,11.64,8.07c0.99,5.44-2.63,10.65-8.07,11.64
						c-10.61,1.92-21.26,4.32-31.65,7.13c-0.66,0.18-1.33,0.28-1.99,0.33C2373.18,522.28,2368.8,519.28,2367.54,514.61z
						 M2496.26,508.71c-10.75-0.46-21.65-0.47-32.42-0.01c-5.53,0.24-10.19-4.05-10.43-9.58c-0.23-5.45,3.94-10.07,9.36-10.41
						c0.07,0,0.14-0.01,0.21-0.01c11.34-0.48,22.82-0.48,34.13,0c5.52,0.24,9.81,4.91,9.57,10.43c-0.22,5.16-4.31,9.24-9.36,9.56
						C2496.99,508.72,2496.63,508.72,2496.26,508.71z"/>
					
						<linearGradient id="SVGID_5_" gradientUnits="userSpaceOnUse" x1="-934.1952" y1="678.7088" x2="-900.8466" y2="678.7088" gradientTransform="matrix(-0.998 0.0633 0.0633 0.998 1285.0391 -41.4726)">
						<stop  offset="0" style="stop-color:#B37CFF"/>
						<stop  offset="1" style="stop-color:#F895E7"/>
					</linearGradient>
					<path class="st9" d="M2237.96,592.64c1.97-0.12,3.92-0.83,5.58-2.15c4.04-3.21,8.22-6.39,12.41-9.45
						c4.47-3.26,5.45-9.52,2.19-13.99c-3.26-4.47-9.52-5.45-13.99-2.18c-4.41,3.22-8.81,6.56-13.06,9.94
						c-4.33,3.44-5.05,9.74-1.62,14.06C2231.6,591.54,2234.8,592.84,2237.96,592.64z"/>
				</g>
				<g class="st7">
					
						<linearGradient id="SVGID_6_" gradientUnits="userSpaceOnUse" x1="-761.1072" y1="933.5443" x2="-738.2234" y2="933.5443" gradientTransform="matrix(-0.998 0.0633 0.0633 0.998 1285.0391 -41.4726)">
						<stop  offset="0" style="stop-color:#B37CFF"/>
						<stop  offset="1" style="stop-color:#F895E7"/>
					</linearGradient>
					<path class="st10" d="M2092.02,860.69c4.82-0.31,8.84-4.07,9.32-9.04c0.49-5.14,1.1-10.35,1.81-15.49
						c0.75-5.48-3.08-10.53-8.55-11.28c-5.5-0.76-10.53,3.08-11.28,8.55c-0.74,5.41-1.38,10.91-1.9,16.32
						c-0.53,5.5,3.51,10.39,9.01,10.92C2090.96,860.72,2091.49,860.73,2092.02,860.69z"/>
					
						<linearGradient id="SVGID_7_" gradientUnits="userSpaceOnUse" x1="-1321.506" y1="1193.8403" x2="-733.3347" y2="1193.8403" gradientTransform="matrix(-0.998 0.0633 0.0633 0.998 1285.0391 -41.4726)">
						<stop  offset="0" style="stop-color:#B37CFF"/>
						<stop  offset="1" style="stop-color:#F895E7"/>
					</linearGradient>
					<path class="st11" d="M2484.72,1288.07c-5.53,0.08-10.08-4.34-10.15-9.87c-0.08-5.53,4.33-10.06,9.87-10.15
						c10.52-0.15,21.21-0.75,31.87-1.79c5.47-0.55,10.4,3.49,10.93,9s-3.49,10.4-8.99,10.93c-4.62,0.45-9.23,0.82-13.83,1.11
						C2497.86,1287.72,2491.23,1287.98,2484.72,1288.07z M2560.01,1269.8c-1.27-5.38,2.05-10.77,7.43-12.05
						c10.33-2.45,20.66-5.36,30.72-8.65c5.24-1.74,10.91,1.14,12.63,6.4c1.72,5.25-1.14,10.91-6.4,12.63
						c-10.59,3.47-21.47,6.54-32.34,9.11c-0.56,0.13-1.13,0.22-1.69,0.25C2565.6,1277.79,2561.16,1274.62,2560.01,1269.8z
						 M2430.25,1285.12c-11.05-1.36-22.2-3.22-33.13-5.52c-5.41-1.14-8.87-6.45-7.74-11.86c1.14-5.41,6.45-8.87,11.86-7.74
						c10.38,2.19,20.96,3.95,31.46,5.24c5.49,0.68,9.39,5.67,8.71,11.16c-0.6,4.85-4.58,8.46-9.29,8.76
						C2431.51,1285.21,2430.88,1285.2,2430.25,1285.12z M2641.59,1243.01c-2.43-4.97-0.36-10.96,4.6-13.39
						c9.52-4.65,18.96-9.76,28.05-15.19c4.75-2.84,10.89-1.29,13.73,3.46c2.84,4.75,1.29,10.89-3.46,13.73
						c-9.57,5.72-19.51,11.1-29.54,16c-1.21,0.59-2.48,0.92-3.75,1C2647.29,1248.86,2643.42,1246.77,2641.59,1243.01z
						 M2344.67,1264.74c-10.48-3.76-20.94-8.02-31.1-12.67c-5.03-2.3-7.24-8.23-4.94-13.26c2.3-5.03,8.24-7.24,13.27-4.94
						c9.65,4.41,19.59,8.46,29.54,12.03c5.2,1.87,7.91,7.6,6.04,12.81c-1.39,3.88-4.93,6.37-8.79,6.61
						C2347.36,1265.4,2345.99,1265.22,2344.67,1264.74z M2265.63,1226.09c-9.42-5.97-18.71-12.41-27.59-19.14
						c-4.41-3.34-5.27-9.62-1.93-14.03c3.34-4.41,9.62-5.28,14.02-1.93c8.44,6.39,17.26,12.51,26.22,18.19
						c4.67,2.96,6.06,9.15,3.1,13.82c-1.78,2.81-4.74,4.43-7.83,4.63C2269.58,1227.75,2267.48,1227.26,2265.63,1226.09z
						 M2196.89,1171.13c-7.9-7.89-15.56-16.2-22.76-24.69c-3.57-4.22-3.05-10.53,1.17-14.11c4.22-3.58,10.54-3.05,14.11,1.17
						c6.84,8.08,14.12,15.97,21.63,23.47c3.91,3.91,3.92,10.24,0.02,14.16c-1.79,1.8-4.1,2.77-6.45,2.92
						C2201.83,1174.21,2199.01,1173.24,2196.89,1171.13z M2141.78,1102.48c-5.99-9.42-11.64-19.21-16.81-29.1
						c-2.56-4.9-0.66-10.95,4.24-13.51c4.89-2.56,10.95-0.66,13.51,4.24c4.9,9.38,10.27,18.68,15.96,27.63
						c2.96,4.67,1.59,10.85-3.08,13.82c-1.47,0.94-3.1,1.44-4.73,1.54C2147.35,1107.33,2143.81,1105.67,2141.78,1102.48z
						 M2103.08,1023.36c-3.76-10.49-7.11-21.27-9.97-32.06c-1.42-5.34,1.76-10.83,7.11-12.25c5.33-1.41,10.82,1.76,12.24,7.11
						c2.72,10.25,5.91,20.49,9.47,30.46c1.86,5.2-0.85,10.93-6.05,12.8c-0.91,0.32-1.83,0.51-2.74,0.57
						C2108.8,1030.26,2104.62,1027.66,2103.08,1023.36z M2082.72,937.76c-1.02-8.14-1.8-16.42-2.32-24.6
						c-0.19-2.96-0.34-5.91-0.46-8.87c-0.23-5.52,3.99-10.29,9.59-10.42c5.52-0.23,10.19,4.06,10.42,9.59
						c0.12,2.8,0.26,5.61,0.44,8.43c0.49,7.77,1.23,15.64,2.2,23.38c0.69,5.49-3.21,10.49-8.69,11.17
						c-0.21,0.02-0.41,0.05-0.62,0.06C2088.04,946.85,2083.38,943.04,2082.72,937.76z"/>
					
						<linearGradient id="SVGID_8_" gradientUnits="userSpaceOnUse" x1="-1380.1311" y1="1317.7952" x2="-1347.208" y2="1317.7952" gradientTransform="matrix(-0.998 0.0633 0.0633 0.998 1285.0391 -41.4726)">
						<stop  offset="0" style="stop-color:#B37CFF"/>
						<stop  offset="1" style="stop-color:#F895E7"/>
					</linearGradient>
					<path class="st12" d="M2723.9,1202.49c1.99-0.13,3.95-0.84,5.62-2.18c4.23-3.39,8.46-6.94,12.59-10.54
						c4.17-3.63,4.6-9.96,0.96-14.12c-3.64-4.17-9.95-4.6-14.12-0.96c-3.92,3.42-7.94,6.79-11.96,10.01
						c-4.31,3.46-5.01,9.76-1.55,14.07C2717.57,1201.41,2720.76,1202.69,2723.9,1202.49z"/>
				</g>
				<g>
					<linearGradient id="SVGID_9_" gradientUnits="userSpaceOnUse" x1="1527.1118" y1="-395.4651" x2="3715.6055" y2="2548.7671">
						<stop  offset="0" style="stop-color:#A737D5"/>
						<stop  offset="1" style="stop-color:#EF497A"/>
					</linearGradient>
					<path class="st13" d="M2742.81,1031.91c1.16-1.62,1.17-3.8,0.01-5.43l-32.98-46.42c10.14-24.59,16.42-50.97,18.22-78.28
						l50.04-27.1c1.76-0.95,2.71-2.91,2.39-4.88l-11.18-67.39c-0.33-1.97-1.87-3.52-3.83-3.85l-56.11-9.5
						c-10.52-25.27-24.98-48.21-42.51-68.21l16.23-54.58c0.57-1.91-0.14-3.98-1.76-5.14l-55.55-39.75
						c-1.62-1.16-3.81-1.17-5.43-0.01l-46.42,32.98c-24.59-10.14-50.97-16.42-78.28-18.22l-27.1-50.04
						c-0.95-1.76-2.91-2.71-4.88-2.39l-67.39,11.17c-1.97,0.33-3.51,1.87-3.85,3.83l-9.5,56.11
						c-25.27,10.52-48.21,24.98-68.21,42.51l-54.59-16.23c-1.91-0.57-3.98,0.14-5.14,1.76l-39.75,55.55
						c-1.16,1.62-1.16,3.8-0.01,5.43l32.98,46.43c-10.14,24.59-16.42,50.97-18.22,78.28l-50.04,27.1c-1.76,0.95-2.71,2.91-2.39,4.88
						l11.18,67.39c0.33,1.97,1.87,3.51,3.83,3.85l56.11,9.5c10.52,25.27,24.98,48.21,42.51,68.21l-16.23,54.58
						c-0.57,1.91,0.14,3.98,1.76,5.14l55.55,39.75c1.62,1.16,3.8,1.16,5.43,0.01l46.42-32.98c24.59,10.14,50.97,16.42,78.28,18.22
						l27.1,50.04c0.95,1.75,2.91,2.71,4.88,2.39l67.39-11.18c1.97-0.33,3.51-1.87,3.85-3.83l9.5-56.11
						c25.27-10.52,48.21-24.98,68.21-42.51l54.58,16.23c1.91,0.57,3.98-0.14,5.14-1.76L2742.81,1031.91z"/>
					<path class="st14" d="M2473.34,953.59c-37.73-3.14-65.87-36.38-62.74-74.11c1.52-18.28,10.06-34.87,24.06-46.72
						c13.99-11.85,31.77-17.54,50.05-16.02c37.73,3.14,65.87,36.38,62.74,74.11c-2.85,34.33-30.63,60.72-64.03,62.84
						C2480.11,953.91,2476.74,953.88,2473.34,953.59z M2445.02,844.99c-10.73,9.09-17.28,21.81-18.45,35.82
						c-2.4,28.92,19.17,54.42,48.1,56.82c28.94,2.41,54.42-19.17,56.82-48.1c2.4-28.93-19.17-54.42-48.1-56.82
						c-2.62-0.22-5.23-0.24-7.81-0.08C2464.38,833.34,2453.74,837.61,2445.02,844.99z"/>
					<path class="st14" d="M2488.3,1052.75c5.74-0.36,11.49-1.02,17.24-1.97l0,0c1.81-0.3,3.61-0.63,5.41-0.99
						c8.87-1.77,17.59-4.24,26.01-7.37c0.11-0.04,0.23-0.09,0.34-0.13c0.33-0.12,0.65-0.24,0.98-0.37c0.63-0.24,1.26-0.49,1.89-0.74
						c1.66-0.65,2.63-2.29,2.53-3.97c-0.03-0.41-0.12-0.82-0.28-1.22c-0.81-2.06-3.14-3.06-5.2-2.25c-10.58,4.19-21.69,7.26-33,9.13
						c-56.22,9.33-110.57-11.86-146.09-51.4c-19.76-21.99-33.69-49.67-38.87-80.94c-0.91-5.48-1.54-10.97-1.88-16.44
						c-2.33-36.83,7.98-73.03,29.75-103.44c25-34.94,62.1-58.05,104.48-65.07c87.52-14.5,170.46,44.86,184.96,132.34
						c0.89,5.39,1.51,10.81,1.85,16.23c1.49,23.49-2.18,47.05-10.83,68.96c-0.22,0.57-0.31,1.15-0.27,1.72
						c0.1,1.5,1.04,2.88,2.53,3.47c2.06,0.81,4.38-0.19,5.2-2.26c9.08-23.01,12.93-47.74,11.37-72.4
						c-0.36-5.69-1.01-11.38-1.95-17.04c-15.23-91.84-102.36-154.16-194.17-138.94c-44.49,7.38-83.44,31.64-109.68,68.32
						c-22.85,31.93-33.68,69.94-31.23,108.6c0.36,5.74,1.02,11.51,1.97,17.26c7.38,44.49,31.64,83.44,68.31,109.68
						C2411.61,1044.38,2449.64,1055.21,2488.3,1052.75z"/>
				</g>
			</g>
			<g>
				<g class="st7">
					
						<linearGradient id="SVGID_10_" gradientUnits="userSpaceOnUse" x1="-1872.6567" y1="1304.6556" x2="-1856.3815" y2="1304.6556" gradientTransform="matrix(-0.998 0.0633 0.0633 0.998 1285.0391 -41.4726)">
						<stop  offset="0" style="stop-color:#B37CFF"/>
						<stop  offset="1" style="stop-color:#F895E7"/>
					</linearGradient>
					<path class="st15" d="M3227.33,1156.31c2.67-0.17,5.02-2.07,5.64-4.81c1.16-5.12,2.17-10.35,3.02-15.53
						c0.55-3.37-1.73-6.55-5.1-7.1c-3.37-0.57-6.55,1.73-7.1,5.1c-0.81,4.94-1.78,9.92-2.88,14.81c-0.75,3.33,1.34,6.64,4.67,7.39
						C3226.17,1156.3,3226.76,1156.34,3227.33,1156.31z"/>
					
						<linearGradient id="SVGID_11_" gradientUnits="userSpaceOnUse" x1="-1879.2435" y1="1121.814" x2="-1560.2397" y2="1121.814" gradientTransform="matrix(-0.998 0.0633 0.0633 0.998 1285.0391 -41.4726)">
						<stop  offset="0" style="stop-color:#B37CFF"/>
						<stop  offset="1" style="stop-color:#F895E7"/>
					</linearGradient>
					<path class="st16" d="M3232.87,1109.16c-3.41-0.13-6.07-3-5.94-6.42c0.33-8.61,0.22-17.34-0.33-25.94
						c-0.11-1.81-0.25-3.63-0.41-5.46c-0.29-3.4,2.24-6.39,5.64-6.68c3.23-0.14,6.39,2.24,6.68,5.64c0.16,1.91,0.3,3.81,0.42,5.71
						c0.57,9.01,0.69,18.17,0.34,27.2c-0.12,3.2-2.65,5.73-5.78,5.93C3233.3,1109.16,3233.09,1109.16,3232.87,1109.16z
						 M3221.65,1040.27c-2.14-10.23-4.93-20.42-8.3-30.28c-1.1-3.23,0.62-6.74,3.85-7.85c3.22-1.09,6.75,0.62,7.85,3.85
						c3.53,10.33,6.46,21.01,8.7,31.74c0.7,3.34-1.44,6.62-4.79,7.32c-0.29,0.06-0.59,0.1-0.88,0.12
						C3225.07,1045.37,3222.29,1043.32,3221.65,1040.27z M3201.36,980.97c-4.57-9.38-9.79-18.56-15.49-27.31
						c-1.86-2.86-1.06-6.69,1.8-8.55c2.87-1.87,6.69-1.07,8.56,1.8c5.99,9.17,11.45,18.82,16.25,28.65c1.5,3.07,0.22,6.77-2.84,8.27
						c-0.75,0.36-1.53,0.56-2.32,0.61C3204.89,984.58,3202.5,983.29,3201.36,980.97z M3167.12,928.47
						c-6.74-7.98-14.05-15.62-21.7-22.68c-2.51-2.32-2.66-6.23-0.35-8.74c2.31-2.5,6.23-2.66,8.74-0.35
						c8.03,7.42,15.68,15.42,22.76,23.79c2.2,2.61,1.87,6.51-0.73,8.72c-1.05,0.88-2.31,1.36-3.59,1.44
						C3170.35,930.77,3168.44,930.02,3167.12,928.47z M3121.1,885.92c-8.48-6.1-17.41-11.73-26.56-16.74
						c-2.99-1.64-4.09-5.4-2.45-8.39c1.64-3,5.4-4.1,8.39-2.45c9.58,5.25,18.95,11.15,27.84,17.54c2.77,2,3.4,5.86,1.41,8.63
						c-1.13,1.57-2.85,2.45-4.63,2.56C3123.72,887.15,3122.31,886.78,3121.1,885.92z M3066.14,855.82
						c-9.7-3.85-19.73-7.13-29.81-9.74c-3.3-0.86-5.29-4.23-4.43-7.54c0.86-3.3,4.22-5.28,7.54-4.44
						c10.57,2.74,21.1,6.18,31.27,10.22c3.17,1.26,4.72,4.85,3.47,8.03c-0.91,2.3-3.05,3.75-5.36,3.89
						C3067.93,856.3,3067.02,856.17,3066.14,855.82z M3005.52,840.09c-10.31-1.35-20.85-2.06-31.32-2.13
						c-3.41-0.02-6.17-2.81-6.14-6.22c0.02-3.41,2.8-6.11,6.22-6.15c10.97,0.07,22.02,0.82,32.84,2.24
						c3.39,0.44,5.77,3.55,5.33,6.93c-0.39,2.98-2.84,5.18-5.73,5.37C3006.33,840.16,3005.93,840.15,3005.52,840.09z
						 M2904.47,840.72c-0.81-3.32,1.22-6.66,4.54-7.47c9.18-2.24,18.65-4.02,28.1-5.28c1.44-0.2,2.87-0.38,4.3-0.55
						c3.36-0.49,6.46,2.03,6.85,5.43c0.39,3.39-2.04,6.46-5.43,6.85c-1.35,0.15-2.69,0.32-4.06,0.51c-9.05,1.2-18.08,2.9-26.84,5.03
						c-0.36,0.09-0.72,0.14-1.08,0.17C2907.93,845.62,2905.19,843.68,2904.47,840.72z"/>
				</g>
				<g class="st7">
					
						<linearGradient id="SVGID_12_" gradientUnits="userSpaceOnUse" x1="-1736.8909" y1="1427.6241" x2="-1372.8044" y2="1427.6241" gradientTransform="matrix(-0.998 0.0633 0.0633 0.998 1285.0391 -41.4726)">
						<stop  offset="0" style="stop-color:#B37CFF"/>
						<stop  offset="1" style="stop-color:#F895E7"/>
					</linearGradient>
					<path class="st17" d="M2985.61,1359.41c-10.76,0.54-21.65,0.43-32.37-0.32c-3.4-0.24-5.97-3.2-5.73-6.61
						c0.24-3.41,3.22-5.94,6.61-5.73c10.22,0.72,20.6,0.83,30.87,0.31c3.41-0.17,6.31,2.45,6.49,5.86c0.17,3.38-2.41,6.27-5.78,6.48
						C2985.67,1359.41,2985.64,1359.41,2985.61,1359.41z M3010.66,1350.79c-0.58-3.36,1.68-6.56,5.04-7.14
						c10.12-1.74,20.24-4.12,30.08-7.06c3.25-0.96,6.72,0.88,7.69,4.16c0.98,3.27-0.88,6.71-4.15,7.69
						c-10.31,3.08-20.91,5.57-31.52,7.39c-0.22,0.04-0.44,0.06-0.67,0.08C3014.03,1356.11,3011.21,1353.94,3010.66,1350.79z
						 M2921.14,1354.83c-10.58-2.08-21.12-4.81-31.34-8.14c-3.25-1.06-5.02-4.55-3.96-7.8c1.05-3.25,4.53-5.01,7.79-3.97
						c9.74,3.18,19.8,5.79,29.89,7.77c3.35,0.66,5.53,3.91,4.88,7.25c-0.55,2.82-2.94,4.81-5.67,4.98
						C2922.21,1354.96,2921.68,1354.93,2921.14,1354.83z M3071.6,1334.09c-1.37-3.13,0.05-6.77,3.18-8.15
						c9.41-4.12,18.65-8.87,27.48-14.1c2.94-1.74,6.73-0.77,8.47,2.16c1.74,2.94,0.77,6.73-2.16,8.47
						c-9.26,5.49-18.95,10.47-28.82,14.8c-0.68,0.3-1.39,0.46-2.09,0.51C3075.13,1337.94,3072.67,1336.54,3071.6,1334.09z
						 M2859.7,1334.8c-9.75-4.55-19.32-9.74-28.45-15.44c-2.9-1.81-3.78-5.62-1.97-8.52c1.81-2.9,5.62-3.79,8.52-1.98
						c8.71,5.44,17.84,10.39,27.14,14.72c3.09,1.44,4.43,5.12,2.99,8.22c-0.99,2.12-3.03,3.42-5.22,3.56
						C2861.71,1335.43,2860.68,1335.25,2859.7,1334.8z M2804.86,1300.62c-8.39-6.76-16.45-14.1-23.94-21.8
						c-2.38-2.44-2.33-6.36,0.12-8.74c2.44-2.38,6.36-2.33,8.74,0.12c7.15,7.34,14.83,14.34,22.84,20.79
						c2.66,2.14,3.08,6.04,0.93,8.7c-1.13,1.4-2.75,2.18-4.43,2.29C2807.64,1302.07,2806.11,1301.63,2804.86,1300.62z
						 M2759.77,1254.29c-6.53-8.58-12.6-17.64-18.02-26.92c-1.72-2.95-0.73-6.74,2.22-8.46c2.95-1.72,6.73-0.72,8.46,2.22
						c5.17,8.85,10.95,17.49,17.18,25.66c2.07,2.72,1.54,6.6-1.17,8.67c-1.01,0.77-2.17,1.18-3.35,1.25
						C2763.09,1256.83,2761.07,1256,2759.77,1254.29z"/>
					
						<linearGradient id="SVGID_13_" gradientUnits="userSpaceOnUse" x1="-1776.9133" y1="1450.387" x2="-1752.0138" y2="1450.387" gradientTransform="matrix(-0.998 0.0633 0.0633 0.998 1285.0391 -41.4726)">
						<stop  offset="0" style="stop-color:#B37CFF"/>
						<stop  offset="1" style="stop-color:#F895E7"/>
					</linearGradient>
					<path class="st18" d="M3132.21,1305.39c1.19-0.08,2.37-0.5,3.39-1.28c4.19-3.24,8.3-6.61,12.22-10.03
						c2.57-2.24,2.84-6.15,0.6-8.73c-2.25-2.56-6.15-2.83-8.73-0.6c-3.74,3.26-7.66,6.48-11.65,9.57c-2.7,2.09-3.2,5.97-1.11,8.67
						C3128.23,1304.69,3130.23,1305.52,3132.21,1305.39z"/>
				</g>
				<g>
					<linearGradient id="SVGID_14_" gradientUnits="userSpaceOnUse" x1="1746.339" y1="-558.4208" x2="3934.8345" y2="2385.8135">
						<stop  offset="0" style="stop-color:#A737D5"/>
						<stop  offset="1" style="stop-color:#EF497A"/>
					</linearGradient>
					<path class="st19" d="M3148.62,1188.83c0.78-1.09,0.78-2.55,0.01-3.64l-22.07-31.07c6.78-16.45,10.99-34.1,12.19-52.38
						l33.49-18.14c1.17-0.64,1.82-1.95,1.6-3.27l-7.48-45.09c-0.22-1.32-1.25-2.35-2.56-2.58l-37.55-6.36
						c-7.04-16.91-16.72-32.26-28.45-45.64l10.86-36.53c0.38-1.28-0.09-2.66-1.18-3.44l-37.17-26.6c-1.09-0.78-2.55-0.78-3.64-0.01
						l-31.06,22.07c-16.45-6.78-34.11-10.99-52.38-12.19l-18.14-33.49c-0.64-1.17-1.95-1.82-3.26-1.6l-45.09,7.48
						c-1.32,0.22-2.35,1.25-2.57,2.57l-6.36,37.55c-16.91,7.04-32.26,16.72-45.64,28.45l-36.53-10.86
						c-1.28-0.38-2.66,0.09-3.44,1.18l-26.6,37.17c-0.78,1.09-0.78,2.55-0.01,3.63l22.07,31.07c-6.78,16.45-10.99,34.1-12.19,52.38
						l-33.49,18.14c-1.17,0.64-1.82,1.95-1.6,3.26l7.48,45.09c0.22,1.32,1.25,2.35,2.57,2.57l37.55,6.36
						c7.04,16.91,16.72,32.26,28.45,45.64l-10.86,36.53c-0.38,1.28,0.09,2.66,1.18,3.44l37.17,26.6c1.09,0.78,2.55,0.78,3.64,0.01
						l31.06-22.07c16.45,6.78,34.11,10.99,52.38,12.19l18.14,33.49c0.64,1.17,1.95,1.82,3.27,1.6l45.09-7.48
						c1.32-0.22,2.35-1.25,2.57-2.57l6.36-37.55c16.91-7.04,32.26-16.72,45.64-28.45l36.53,10.86c1.28,0.38,2.66-0.09,3.44-1.18
						L3148.62,1188.83z"/>
					<path class="st14" d="M2968.24,1137.24c-12.45-1.03-23.76-6.85-31.83-16.39c-8.07-9.53-11.95-21.64-10.91-34.09
						c2.14-25.7,24.75-44.83,50.49-42.74c25.7,2.14,44.87,24.79,42.73,50.48c-1.03,12.45-6.85,23.75-16.39,31.82
						c-7.75,6.56-17.2,10.35-27.16,10.98C2972.88,1137.46,2970.56,1137.43,2968.24,1137.24z M2937.82,1087.78
						c-0.76,9.16,2.09,18.07,8.03,25.08c5.94,7.01,14.25,11.29,23.41,12.06l0,0c9.16,0.75,18.06-2.09,25.08-8.03
						c7.01-5.93,11.29-14.25,12.05-23.41c1.57-18.9-12.53-35.56-31.43-37.14c-1.71-0.14-3.39-0.15-5.05-0.05
						C2953.17,1057.36,2939.25,1070.59,2937.82,1087.78z"/>
					<path class="st14" d="M2978.66,1206.26c3.9-0.25,7.83-0.7,11.77-1.35c7.82-1.3,15.52-3.39,22.9-6.23
						c0.33-0.13,0.66-0.26,0.99-0.39c2.56-1.01,4.06-3.53,3.9-6.13c-0.04-0.63-0.18-1.27-0.43-1.89c-1.25-3.18-4.85-4.71-8.02-3.47
						c-6.86,2.72-14.05,4.7-21.36,5.91l0,0c-0.4,0.07-0.81,0.13-1.2,0.19c-17.33,2.7-34.68,0.98-50.76-4.77
						c-8.73-3.12-17.1-7.45-24.88-12.91c-0.06-0.04-0.13-0.09-0.19-0.13c-0.19-0.14-0.39-0.27-0.58-0.41
						c-22.61-16.18-37.58-40.2-42.13-67.64c-0.59-3.55-1-7.1-1.22-10.64c-1.51-23.84,5.17-47.28,19.26-66.97
						c16.18-22.61,40.2-37.57,67.63-42.12c27.42-4.54,55,1.86,77.61,18.03c22.61,16.18,37.58,40.2,42.13,67.64
						c0.58,3.49,0.98,7,1.2,10.51c0.96,15.21-1.41,30.46-7.01,44.64c-0.34,0.88-0.48,1.78-0.42,2.66c0.15,2.31,1.6,4.45,3.9,5.36
						c3.18,1.24,6.77-0.3,8.02-3.49c6.26-15.87,8.92-32.94,7.85-49.95c-0.25-3.93-0.69-7.85-1.34-11.76
						c-5.09-30.7-21.83-57.57-47.13-75.67c-25.3-18.1-56.12-25.29-86.83-20.18c-30.69,5.09-57.57,21.82-75.67,47.13
						c-15.76,22.03-23.24,48.25-21.55,74.92c0.25,3.96,0.7,7.94,1.36,11.91C2866.32,1168.48,2919.79,1209.99,2978.66,1206.26z"/>
				</g>
			</g>
		</g>
		<g>
			<g>
				<g>
					<linearGradient id="SVGID_15_" gradientUnits="userSpaceOnUse" x1="3181.4985" y1="2311.7766" x2="916.0422" y2="1463.9052">
						<stop  offset="0" style="stop-color:#53D8FF"/>
						<stop  offset="1" style="stop-color:#3840F7"/>
					</linearGradient>
					<path class="st20" d="M1807.92,1677.65c-199.46-189.17-536.94-352.81-832.99-353.22l-25.46,310.15
						c7.93-0.23,15.89-0.37,23.88-0.37c246.49,0,485.72,139,631.45,315.12c40.37-84.88,124-140.73,163.34-227.01L1807.92,1677.65z"
						/>
					<linearGradient id="SVGID_16_" gradientUnits="userSpaceOnUse" x1="3215.4834" y1="2220.9641" x2="950.0276" y2="1373.0929">
						<stop  offset="0" style="stop-color:#53D8FF"/>
						<stop  offset="1" style="stop-color:#3840F7"/>
					</linearGradient>
					<polygon class="st21" points="1090.01,1208.1 610.78,1440.96 678.92,1491.92 1111.64,1491.92 1132.14,1220.96 					"/>
					<g>
						<linearGradient id="SVGID_17_" gradientUnits="userSpaceOnUse" x1="1958.7477" y1="2062.6897" x2="-110.2049" y2="782.9821">
							<stop  offset="0" style="stop-color:#53D8FF"/>
							<stop  offset="1" style="stop-color:#3840F7"/>
						</linearGradient>
						<path class="st22" d="M1090.01,1208.1l-45.96,606.07L573.16,1465.9c-3.18-2.35-2.72-7.23,0.84-8.95L1090.01,1208.1z"/>
						<linearGradient id="SVGID_18_" gradientUnits="userSpaceOnUse" x1="1996.0649" y1="2087.7539" x2="-150.8726" y2="759.8105">
							<stop  offset="0" style="stop-color:#53D8FF"/>
							<stop  offset="1" style="stop-color:#3840F7"/>
						</linearGradient>
						<path class="st23" d="M1576.03,2106.2c44.58-101.15,127.35-305.24,198.56-388.07c-202.67-215.35-525.26-374.67-844.27-375.11
							l-25.46,310.15c7.93-0.23,15.89-0.37,23.88-0.37C1188.76,1652.8,1530.68,1838.78,1576.03,2106.2z"/>
					</g>
				</g>
				<g>
					<path class="st0" d="M1712.04,1739.09c-0.91,0-1.81-0.39-2.44-1.15c-56.09-67.97-140.84-135.16-245.09-194.32
						c-1.52-0.86-2.05-2.79-1.19-4.31c0.86-1.51,2.78-2.05,4.31-1.19c104.91,59.53,190.27,127.24,246.84,195.79
						c1.11,1.34,0.92,3.33-0.43,4.45C1713.46,1738.85,1712.74,1739.09,1712.04,1739.09z"/>
					<path class="st0" d="M1431.9,1525.31c-0.5,0-1-0.12-1.47-0.37c-63.94-33.82-130.58-62.63-198.09-85.62
						c-1.65-0.56-2.53-2.36-1.97-4.01c0.56-1.65,2.35-2.53,4.01-1.97c67.82,23.1,134.78,52.04,199.01,86.01
						c1.54,0.81,2.13,2.72,1.32,4.27C1434.13,1524.7,1433.03,1525.31,1431.9,1525.31z"/>
					<path class="st0" d="M1193.3,1426.6c-0.3,0-0.61-0.04-0.92-0.14c-40.73-12.35-80.31-21.98-117.64-28.62
						c-1.72-0.3-2.86-1.94-2.56-3.66c0.31-1.71,1.96-2.86,3.66-2.56c37.58,6.68,77.4,16.37,118.37,28.79
						c1.67,0.51,2.61,2.27,2.11,3.94C1195.91,1425.72,1194.65,1426.6,1193.3,1426.6z"/>
				</g>
			</g>
			<g>
				<g>
					<linearGradient id="SVGID_19_" gradientUnits="userSpaceOnUse" x1="1874.5367" y1="3401.803" x2="1821.859" y2="232.7037">
						<stop  offset="0" style="stop-color:#53D8FF"/>
						<stop  offset="1" style="stop-color:#3840F7"/>
					</linearGradient>
					<polygon class="st24" points="1830.13,455.32 1774.41,449.74 1787.58,476.94 1530.68,920.53 1991.13,920.53 2092.02,950.15 
						2135.99,925.61 					"/>
					<linearGradient id="SVGID_20_" gradientUnits="userSpaceOnUse" x1="1880.4589" y1="3787.9253" x2="1819.0348" y2="92.6466">
						<stop  offset="0" style="stop-color:#53D8FF"/>
						<stop  offset="1" style="stop-color:#3840F7"/>
					</linearGradient>
					<path class="st25" d="M1680.2,880.31v570.51c50.27,41.07,56.46,202.14,102.21,252.22c50.78-49.47,147.46-153.99,211.13-191.91
						V880.31H1680.2z"/>
					<g>
						<linearGradient id="SVGID_21_" gradientUnits="userSpaceOnUse" x1="1765.1807" y1="1909.026" x2="1840.3318" y2="-976.856">
							<stop  offset="0" style="stop-color:#53D8FF"/>
							<stop  offset="1" style="stop-color:#3840F7"/>
						</linearGradient>
						<path class="st26" d="M1494.13,950.69h597.89l-314.88-501c-0.64-1.02-2.13-0.99-2.73,0.05l-285.23,492.37
							C1486.97,945.92,1489.72,950.69,1494.13,950.69z"/>
						<linearGradient id="SVGID_22_" gradientUnits="userSpaceOnUse" x1="1764.5665" y1="1912.5326" x2="1839.9756" y2="-983.2518">
							<stop  offset="0" style="stop-color:#53D8FF"/>
							<stop  offset="1" style="stop-color:#3840F7"/>
						</linearGradient>
						<path class="st27" d="M1623.23,910.47v673.74c56.97,41.07,100.23,99.85,145.98,149.93
							c50.78-49.47,110.39-150.92,172.39-190.06V910.47H1623.23z"/>
					</g>
				</g>
				<path class="st0" d="M1626.58,938.77h-100.31c-2.46,0-4.67-1.26-5.91-3.38c-1.24-2.12-1.27-4.67-0.06-6.81l243.92-434.79
					c0.85-1.52,2.77-2.07,4.3-1.21c1.52,0.85,2.06,2.78,1.21,4.3L1525.8,931.66c-0.1,0.18-0.1,0.35,0.01,0.53
					c0.1,0.17,0.25,0.26,0.46,0.26h100.31c1.74,0,3.16,1.41,3.16,3.16C1629.73,937.35,1628.32,938.77,1626.58,938.77z"/>
			</g>
			<g>
				<linearGradient id="SVGID_23_" gradientUnits="userSpaceOnUse" x1="399.2391" y1="4276.4927" x2="2668.8833" y2="1544.9347">
					<stop  offset="0" style="stop-color:#53D8FF"/>
					<stop  offset="1" style="stop-color:#3840F7"/>
				</linearGradient>
				<path class="st28" d="M2700.5,1334.26c-459.48,0.63-852.9,258.2-1023.02,665.38h0c0,0,0,0.11-0.01,0.12
					c-0.15,0.36-0.31,0.76-0.47,1.12l0.21,0.03c-89.27,196.1-34.95,814.12-27.91,1154.46c0,0,352.78,19.77,352.02,5.76
					c-13.91-257.99-35.2-835.15,1.33-1051.88c11.56-68.58,41.39-132.97,86.47-186.58c145.72-173.32,366.2-283.81,612.96-283.81
					c7.99,0,15.95-0.09,23.88,0.14L2700.5,1334.26z"/>
				<linearGradient id="SVGID_24_" gradientUnits="userSpaceOnUse" x1="1438.7463" y1="2859.8706" x2="3961.9978" y2="314.4407">
					<stop  offset="0" style="stop-color:#53D8FF"/>
					<stop  offset="1" style="stop-color:#3840F7"/>
				</linearGradient>
				<path class="st29" d="M2635.47,1312.77c-0.32-3.92-3.62-6.95-7.55-6.92c-456.48,3.26-846.78,263.61-1016.04,677.82h0
					c0,0,0,0.01-0.01,0.02c-0.15,0.36-0.31,0.72-0.47,1.09l0.21,0.01c-86.86,194.36-24.31,821.97-14.83,1165.8
					c0.19,6.76,5.63,12.18,12.39,12.35c61.75,1.5,339.33,8.05,339.13,4.23c-14.66-281.96-50.03-835.71-11.57-1070.05
					c11.67-71.15,41.99-138.04,88.02-193.53c145.73-175.69,365.66-287.61,611.73-287.61c5.24,0,10.46-0.02,15.67,0.04
					c4.41,0.05,7.89-3.73,7.53-8.13L2635.47,1312.77z"/>
				<linearGradient id="SVGID_25_" gradientUnits="userSpaceOnUse" x1="958.4803" y1="3720.926" x2="3161.4309" y2="835.8416">
					<stop  offset="0" style="stop-color:#53D8FF"/>
					<stop  offset="1" style="stop-color:#3840F7"/>
				</linearGradient>
				<polygon class="st30" points="3010.5,1488.82 3011.68,1487.95 3000.33,1425.23 2999.25,1424.71 2999.05,1423.56 
					2997.93,1424.07 2534.69,1200.66 2566.64,1621.99 2558.57,1625.69 2521.17,1776.99 2568.79,1815.29 2580.64,1806.53 
					2580.65,1806.73 3010.08,1489.13 3010.5,1488.82 				"/>
				<linearGradient id="SVGID_26_" gradientUnits="userSpaceOnUse" x1="1442.0764" y1="2603.6772" x2="3729.5459" y2="296.1018">
					<stop  offset="0" style="stop-color:#53D8FF"/>
					<stop  offset="1" style="stop-color:#3840F7"/>
				</linearGradient>
				<polygon class="st31" points="2475.21,1170.92 2521.17,1776.99 2999.05,1423.56 				"/>
			</g>
		</g>
		<g>
			<g>
				<g>
					<path class="st32" d="M655.29,2738.73c4.29,23.92,10.53,47.5,18.57,70.44c5.14,14.65,10.99,29.02,17.55,43.05
						c17.43,37.33,39.54,72.28,65.27,104.44c16.26,20.36,33.95,39.59,52.8,57.66c16.84,16.14,34.57,31.33,53.06,45.5
						c17.62,13.53,35.93,26.13,54.86,37.81c31.04,19.17,63.7,35.75,97.51,49.42c50.88,20.67,104.35,34.76,158.91,41.21
						c1.85,0.22,3.68,0.43,5.52,0.63c20.65,2.25,41.41,3.39,62.17,3.42c91.05,0.19,182.19-20.82,262.87-62.89
						c4.53-34.12,6.22-71.44,10.75-105.53c-65.4,7.29-131.85-10.88-188.21-45.39c-14.94-9.12-29.17-19.4-42.47-30.65
						c-1.09-0.93-2.2-1.87-3.27-2.82c-23.38-20.25-44.02-43.31-62.08-68.36c-16.48-22.78-30.79-47.2-43.04-72.65
						c-9.91-20.5-18.47-41.68-25.78-63.17c-3.24-9.51-6.22-19.11-9.06-28.76c-8.75-29.83-15.99-60.14-23.86-90.24
						c-7.96-30.49-16.62-60.79-28.19-90.08c-0.71-1.82-1.44-3.63-2.2-5.44c-9.44-22.93-21.18-45.43-35.3-66.01
						c-26.28-38.3-60.82-69.94-104.16-85.32c-64.34-22.85-139.1-4.7-192.27,38.1c-53.17,42.83-85.96,107.42-99.27,174.38
						C646.06,2637.29,646.37,2688.72,655.29,2738.73z"/>
				</g>
				<g>
					<path class="st33" d="M1179.33,3188.89c20.65,2.25,41.41,3.39,62.17,3.42c17.22-75.11,46.14-147.53,85.42-213.82
						c-14.94-9.12-29.17-19.4-42.47-30.65c-1.09-0.93-2.2-1.87-3.27-2.82C1227.71,3015.64,1192.48,3100.91,1179.33,3188.89z"/>
				</g>
				<g>
					<path class="st33" d="M917.4,3097.64c31.04,19.17,63.7,35.75,97.51,49.42c45.91-104.27,116.37-197.78,204.19-270.4
						c-16.48-22.78-30.79-47.2-43.04-72.65c-65.11,33.27-123.06,80.75-169.62,137.2C968.05,2987.72,937.92,3040.94,917.4,3097.64z"
						/>
				</g>
				<g>
					<path class="st33" d="M756.68,2956.67c16.26,20.36,33.95,39.59,52.8,57.66c70.4-135.45,190.38-244.65,331.74-302.25
						c-8.75-29.83-15.99-60.14-23.86-90.24C958.7,2678.32,826.17,2802.94,756.68,2956.67z"/>
				</g>
				<g>
					<path class="st33" d="M655.29,2738.73l18.57,70.44c88.87-147.31,243.87-252.76,413.1-282.86
						c-9.44-22.93-21.18-45.43-35.3-66.01C889.73,2497.27,744.93,2598.23,655.29,2738.73z"/>
				</g>
				<g class="st7">
					<path d="M1346.61,2989.65c51.84,27.16,110.59,40.69,168.52,34.23c-4.53,34.09-6.22,71.42-10.75,105.53
						c-80.68,42.07-171.82,63.08-262.87,62.89c-20.76-0.03-41.52-1.17-62.17-3.42c-1.85-0.2-3.67-0.4-5.52-0.63
						c-54.56-6.45-108.03-20.53-158.91-41.21c-33.8-13.67-66.47-30.25-97.51-49.42c-18.93-11.67-37.24-24.28-54.86-37.81
						c-13.72-10.51-27.01-21.6-39.84-33.2c53.24,41.87,115.56,71.17,184.7,81.88C1129.74,3128.51,1267.23,3082.5,1346.61,2989.65z"
						/>
				</g>
				<g class="st34">
					<path d="M744.05,2422.73c3.63-3.31,7.35-6.53,11.19-9.63c15.37-12.37,32.55-22.67,50.76-30.53
						c-4.79,12.52-8.43,25.53-10.73,38.93c-26.61,147.12,10.31,303.88,122.79,406.47c69.97,66.56,177.04,100.1,268.43,58.55
						c9.81-4.76,19.22-10.25,27.93-16.5c1.55,2.22,3.1,4.45,4.68,6.64c18.06,25.05,38.7,48.11,62.08,68.36
						c1.07,0.96,2.18,1.89,3.27,2.82c0.8,0.68,1.64,1.32,2.45,1.99c-47.48,24.93-100.5,39.83-153.19,43.53
						c-173.67,14.82-358.09-86.85-404.82-266.52C702.22,2624.27,703.09,2513.86,744.05,2422.73z"/>
				</g>
				<g class="st35">
					<path d="M655.98,2587.48c12.35-62.12,41.48-122.19,88.08-164.75c-40.97,91.13-41.84,201.54-15.16,304.11
						c46.72,179.67,231.15,281.34,404.82,266.52c52.69-3.69,105.71-18.59,153.19-43.53c12.61,10.46,25.99,20.09,40.02,28.66
						c6.43,3.94,13.01,7.66,19.69,11.16c-79.38,92.85-216.87,138.86-339.21,118.86c-69.14-10.71-131.46-40.01-184.7-81.88
						c-4.46-4.04-8.87-8.13-13.22-12.3c-18.86-18.07-36.54-37.3-52.8-57.66c-25.73-32.16-47.84-67.11-65.27-104.44
						c-6.56-14.03-12.41-28.41-17.55-43.05c-8.04-22.94-14.29-46.52-18.57-70.44C646.37,2688.72,646.06,2637.29,655.98,2587.48z"/>
				</g>
				<g class="st35">
					<path class="st0" d="M964.4,2418.12c35.33,22.99,62.2,57.57,80.13,95.72c17.93,38.14,27.33,79.83,32.36,121.67
						c0.87,7.24,1.61,14.64,0.16,21.79c-1.45,7.15-5.41,14.14-11.86,17.54c-12.17,6.41-26.94-2.07-36.4-12.06
						c-25.84-27.26-35.52-65.96-56.93-96.83c-29.74-42.88-79.17-67.03-117.97-101.91c-10.94-9.83-21.49-21.32-24.76-35.66
						c-12.5-54.74,72.74-37.92,99.8-28.02C941.37,2404.92,953.29,2410.9,964.4,2418.12z"/>
				</g>
			</g>
			<g>
				<path class="st32" d="M1342.86,3014.24c0.29,5.63,0.81,11.22,1.53,16.78c4.06,30.84,14.68,60.22,33.51,85.02
					c19.24,25.37,44.75,43.46,73.44,56.76c39.45,18.28,84.87,27.47,128.22,33.96c10.74,1.6,21.53,3.13,32.32,4.54
					c94.16,12.36,190.34,16.44,282.36-4.11c8.43-1.89,16.83-3.99,25.18-6.3c37.38-10.33,75.35-26.3,99.22-56.88
					c28.19-36.11,31.46-85.47,29.4-131.25c-6.13-138.74-49.57-272.76-92.63-404.8c-144.81-37.47-282.19-46.18-431.74-43.94
					c-9.81,66.07-43.51,125.93-78.52,182.8c-35.01,56.88-72.49,113.56-91.32,177.62c-4.3,14.58-7.47,29.69-9.36,44.97
					C1342.62,2984.34,1342.03,2999.38,1342.86,3014.24z"/>
			</g>
			<g class="st35">
				<path d="M1653.36,2983.18c-0.85-0.81-1.51-1.83-1.85-3.12C1652.42,2980.95,1653.02,2982.02,1653.36,2983.18z"/>
			</g>
			<g class="st35">
				<path d="M1629.58,2995.14c-0.27-0.42-0.52-0.85-0.73-1.31C1629.15,2994.26,1629.39,2994.7,1629.58,2995.14z"/>
			</g>
			<g>
				<path class="st33" d="M1451.34,3172.8c39.45,18.28,84.87,27.47,128.22,33.96c10.74,1.6,21.53,3.13,32.32,4.54
					c94.16,12.36,190.34,16.44,282.36-4.11c20.29-13.8,37.9-31.17,50.93-51.91c34.42-54.85,32.77-124.33,26.56-188.77
					c-9.31-96.66-27.18-195.19-77.52-278.25c-25.66-42.34-63.11-81.94-111.82-90.77c-41.58-7.54-95.35-10.35-128.21,16.19
					c-32.89,26.54-57.09,62.13-79.62,97.88c-24.32,38.62-47.31,78.05-69.34,117.98c-38.21,69.22-65.26,181.7-67.02,260.82
					C1437.45,3123.42,1442.49,3150.48,1451.34,3172.8z"/>
			</g>
			<g>
				<path class="st36" d="M1861.84,3058.28c4.76-12.76,5.15-24.85,5.72-38.26c0.21-5.02,6.94-5.8,8.57-1.16
					c4.78,13.59,2.25,29.47-3.02,42.53C1870.36,3068.23,1859.18,3065.42,1861.84,3058.28z"/>
			</g>
			<g>
				<path class="st36" d="M1837.09,2963.74c0.64-4.2,6.6-3.39,7.71,0c3.96,12.03,2.9,26.04,1.83,38.45c-0.65,7.5-12.49,7.5-11.75,0
					C1836.14,2989.46,1835.16,2976.36,1837.09,2963.74z"/>
			</g>
			<g>
				<path class="st36" d="M1825.36,3111.12c4.39-14.18,7.63-28.27,8.84-43.1c0.49-6,9.23-6.16,9.45,0
					c0.56,15.69-1.61,31.45-7.29,46.14C1833.78,3120.86,1823.14,3118.28,1825.36,3111.12z"/>
			</g>
			<g class="st7">
				<path d="M1445.14,2746.83c35.01-56.88,68.72-116.74,78.52-182.8c149.55-2.24,286.94,6.47,431.74,43.94
					c12.62,38.71,25.27,77.59,37.01,116.71c-179.86,7.47-358.08,42.33-525.44,117.91c-38.89,16.67-76.23,39.04-108.41,67.09
					C1378.49,2851.6,1412.84,2799.29,1445.14,2746.83z"/>
			</g>
			<g class="st37">
				<path d="M1344.46,2969.42c1.89-15.28,5.06-30.38,9.36-44.97c1.46-4.97,3.07-9.89,4.75-14.78
					c32.18-28.05,69.51-50.42,108.41-67.09c167.36-75.58,345.58-110.44,525.44-117.91c6.61,22.03,12.91,44.14,18.77,66.34
					c-156.37-1.94-317.38,34.15-446.36,130.34c-38.19,28.64-71.6,78.76-54.9,126.5c31.03,83.54,126.5,107.4,210.04,121.73
					c89.27,14,181.11,20.27,267.04,2.86c-20.33,13.2-44.08,21.95-67.61,28.45c-8.35,2.31-16.76,4.42-25.18,6.3
					c-92.01,20.55-188.2,16.47-282.36,4.11c-10.79-1.41-21.58-2.94-32.32-4.54c-43.34-6.49-88.76-15.68-128.22-33.96
					c-28.69-13.29-54.2-31.39-73.44-56.76c-18.83-24.8-29.45-54.18-33.51-85.02c-0.72-5.56-1.24-11.15-1.53-16.78
					C1342.03,2999.38,1342.62,2984.34,1344.46,2969.42z"/>
			</g>
			<g>
				<g>
					<path class="st33" d="M1607.23,2644.84c5.07,103.79,22.82,206.95,52.73,306.46c2.34,7.79,4.68,16.58,0.78,23.72
						c-3.9,7.14-17.02,8.22-18.88,0.29c4.83,5.03,0.35,14.66-5.48,18.49c-5.83,3.83-14.85,1.08-17.55-5.35
						c4.63,6.96-6.3,15.7-14.65,15.42c-8.35-0.28-15.17-6.49-21.01-12.47c-100.61-103.01-153.78-250.62-141.98-394.13
						C1497.44,2613.79,1550.97,2628.34,1607.23,2644.84z"/>
				</g>
				<g>
					<path class="st36" d="M1580.1,2746.15c1.46-5.43,9.61-3.87,9.57,1.57c-0.09,14.93,1.19,28.18,5.65,42.49
						c2.01,6.44-8.55,10.72-11.17,4.35C1577.99,2779.51,1575.84,2762.01,1580.1,2746.15z"/>
				</g>
				<g>
					<path class="st36" d="M1540.23,2715.76c3.01,13.2,3.92,27.06,5.3,40.51c0.83,8.12-11.97,7.74-12.75-0.35
						c-1.25-12.9-2.97-26.1-2.64-39.08C1530.29,2711.12,1538.93,2710.06,1540.23,2715.76z"/>
				</g>
				<g>
					<path class="st36" d="M1561.78,2801.52c3.95,16.53,9.57,32.26,17.25,47.44c3.75,7.42-7.48,13.6-11.33,6.21
						c-8.37-16.04-14.24-33.01-17.22-50.87C1549.26,2797,1560.02,2794.15,1561.78,2801.52z"/>
				</g>
				<g class="st35">
					<path d="M1610.71,2865.59c-26.04-85.98-87.78-171.62-170.76-210.33c-0.72-19.32-0.35-38.69,1.24-57.98
						c56.25,16.5,109.78,31.05,166.03,47.55c5.07,103.79,22.82,206.95,52.73,306.46c2.34,7.79,4.68,16.58,0.78,23.72
						c-3.26,5.97-12.93,7.68-17.12,3.47c-0.31-1.17-0.88-2.25-1.76-3.17c0.31,1.3,0.94,2.34,1.76,3.17
						c1.37,5.2-2.49,12.19-7.25,15.32c-5.41,3.55-13.55,1.44-16.85-4.02c-0.17-0.45-0.4-0.9-0.69-1.33
						c0.29,0.44,0.52,0.88,0.69,1.33c2.57,6.69-7.52,14.35-15.34,14.08c-8.35-0.28-15.17-6.49-21.01-12.47
						c-0.1-0.1-0.2-0.21-0.29-0.31C1608.66,2954.13,1626.09,2910.32,1610.71,2865.59z"/>
				</g>
				<g class="st34">
					<path d="M1556.23,2849.76c-12.53-64.8-54.32-139.81-114.79-170.37c-0.69-8.03-1.2-16.07-1.49-24.12
						c82.98,38.71,144.72,124.34,170.76,210.33c15.38,44.73-2.05,88.54-27.84,125.51c-17.25-17.7-33.08-36.72-47.44-56.8
						C1553.37,2910.72,1562.76,2882.06,1556.23,2849.76z"/>
				</g>
			</g>
			<g>
				<g>
					<path class="st33" d="M1864.59,2590.94c-7.93,103.61-28.53,206.24-61.18,304.89c-2.56,7.72-5.13,16.44-1.43,23.69
						c3.7,7.25,16.79,8.68,18.86,0.82c-4.97,4.89-0.75,14.65,4.97,18.64c5.72,3.99,14.81,1.49,17.69-4.86
						c-4.82,6.83,5.86,15.87,14.21,15.82c8.36-0.05,15.34-6.07,21.34-11.88c103.42-100.19,160.65-246.27,152.82-390.05
						C1975.19,2562.93,1921.28,2576,1864.59,2590.94z"/>
				</g>
				<g>
					<path class="st36" d="M1888.91,2692.96c-1.31-5.47-9.5-4.13-9.61,1.3c-0.32,14.93-1.97,28.13-6.82,42.32
						c-2.18,6.38,8.25,10.95,11.04,4.66C1890.09,2726.37,1892.72,2708.94,1888.91,2692.96z"/>
				</g>
				<g>
					<path class="st36" d="M1929.6,2663.68c-3.37,13.11-4.67,26.94-6.42,40.35c-1.06,8.1,11.75,8.07,12.75,0
						c1.61-12.86,3.69-26.01,3.72-38.99C1939.67,2659.32,1931.06,2658.03,1929.6,2663.68z"/>
				</g>
				<g>
					<path class="st36" d="M1905.69,2748.82c-4.41,16.41-10.46,31.99-18.56,46.94c-3.96,7.31,7.1,13.8,11.16,6.52
						c8.81-15.8,15.15-32.6,18.62-50.37C1918.33,2744.65,1907.65,2741.5,1905.69,2748.82z"/>
				</g>
				<g class="st35">
					<path d="M1855,2811.51c28.41-85.23,92.49-169.12,176.51-205.52c1.25-19.29,1.42-38.66,0.36-57.99
						c-56.69,14.94-110.6,28-167.28,42.94c-7.94,103.61-28.53,206.24-61.18,304.89c-2.56,7.72-5.13,16.44-1.44,23.69
						c3.09,6.05,12.71,8.03,17.01,3.94c0.34-1.16,0.94-2.22,1.85-3.12c-0.34,1.3-1,2.31-1.85,3.12c-1.52,5.16,2.15,12.26,6.82,15.52
						c5.31,3.7,13.5,1.81,16.96-3.55c0.18-0.45,0.43-0.88,0.73-1.31c-0.3,0.43-0.54,0.87-0.73,1.31
						c-2.75,6.62,7.12,14.55,14.94,14.5c8.36-0.05,15.34-6.07,21.34-11.88c0.1-0.1,0.2-0.2,0.3-0.3
						C1854.61,2900.07,1838.4,2855.8,1855,2811.51z"/>
				</g>
				<g class="st34">
					<path d="M1909.9,2797.19c14.32-64.43,58.16-138.26,119.45-167.13c0.91-8.01,1.64-16.03,2.16-24.07
						c-84.02,36.4-148.1,120.29-176.51,205.52c-16.61,44.29-0.4,88.56,24.36,126.23c17.73-17.21,34.08-35.79,49-55.46
						C1911.08,2858.21,1902.49,2829.3,1909.9,2797.19z"/>
				</g>
			</g>
			<g>
				<g>
					<g>
						<path class="st38" d="M1908.64,1797.23c25.83,27.62,49.95,56.15,72.44,85.56c58.16,75.82,105.8,157.56,145.46,245.28
							c9.89,21.78,19.25,43.95,28.17,66.47c-1.01-2.56,46.1-47.4,50.09-53.43c67.44-101.89,109.16-195.55,125.81-269.41
							c6.63-29.41,31-126.37-18.41-133.06c-66.16-8.97-140.46-0.73-205.94,9.62C1970.36,1769.75,1911.94,1800.77,1908.64,1797.23z"
							/>
					</g>
					<g>
						<path class="st39" d="M1981.07,1882.79c58.16,75.82,105.8,157.56,145.46,245.28c59.71-86.98,123.35-211.98,135.5-257.05
							c2.86-10.65,5.66-22.23,1.44-32.41c-4.09-9.86-14.18-16.26-24.62-18.53c-10.44-2.3-21.29-1.13-31.89,0.31
							C2129.26,1830.96,2054.43,1854.56,1981.07,1882.79z"/>
					</g>
					<g class="st7">
						<path d="M1908.64,1797.23c5.28,5.63,10.49,11.32,15.58,17.04c28.12-9.63,82.46-27.3,169.14-41
							c63.83-10.1,136.26-18.12,200.74-9.38c48.17,6.51,24.42,101.03,17.95,129.7c-16.22,72-56.9,163.31-122.64,262.62
							c-2.46,3.72-21.8,22.62-35.38,36.61l0.69,1.73c-1.01-2.56,46.1-47.4,50.09-53.43c67.44-101.89,109.16-195.55,125.81-269.41
							c6.63-29.41,31-126.37-18.41-133.06c-66.16-8.97-140.46-0.73-205.94,9.62C1970.36,1769.75,1911.94,1800.77,1908.64,1797.23z"
							/>
					</g>
					<g class="st7">
						<path d="M1981.07,1882.79c22.66-8.72,45.47-17,68.45-24.59c23.99,42.73,57.41,74,113.63,69.27
							c31.5-1.36,61.97-12.41,89.19-28.85c-22.91,56.86-75.74,156.51-125.81,229.45
							C2086.88,2040.35,2039.23,1958.62,1981.07,1882.79z"/>
					</g>
				</g>
				<g>
					<g>
						<path class="st38" d="M1366.63,1889.83c-21.15,31.35-40.48,63.31-58.06,95.9c-45.49,84.03-79.67,172.25-105.03,265.12
							c-6.34,23.06-12.09,46.43-17.35,70.08c0.6-2.68-52.99-39.54-57.88-44.88c-82.64-89.99-138.59-175.92-166.66-246.24
							c-11.17-28-50.51-119.91-2.77-134.3c63.93-19.28,138.59-22.84,204.89-22.93C1301.35,1872.42,1363.92,1893.84,1366.63,1889.83z
							"/>
					</g>
					<g>
						<path class="st39" d="M1308.57,1985.73c-45.49,84.03-79.67,172.25-105.03,265.12c-72.66-76.49-155.19-189.91-174.28-232.51
							c-4.5-10.07-9.09-21.06-6.52-31.78c2.49-10.38,11.44-18.29,21.4-22.18c9.95-3.92,20.85-4.46,31.54-4.72
							C1154.07,1957.88,1231.68,1969.41,1308.57,1985.73z"/>
					</g>
					<g class="st7">
						<path d="M1366.63,1889.83c-4.32,6.39-8.58,12.83-12.71,19.29c-29.28-5.08-85.72-13.97-173.48-13.86
							c-64.62,0.07-137.41,3.56-199.71,22.34c-46.54,14.01-8.21,103.61,2.69,130.91c27.36,68.54,81.9,152.32,162.46,240.03
							c3.02,3.28,25.09,18.9,40.71,30.58l-0.41,1.81c0.6-2.68-52.99-39.54-57.88-44.88c-82.64-89.99-138.59-175.92-166.66-246.24
							c-11.17-28-50.51-119.91-2.77-134.3c63.93-19.28,138.59-22.84,204.89-22.93C1301.35,1872.42,1363.92,1893.84,1366.63,1889.83z
							"/>
					</g>
					<g class="st7">
						<path d="M1308.57,1985.73c-23.75-5.04-47.58-9.62-71.47-13.5c-16.96,45.97-45.05,82.11-101.31,86.3
							c-31.32,3.61-63.15-2.5-92.62-14.44c31.58,52.54,99.44,142.63,160.37,206.78C1228.89,2157.99,1263.07,2069.77,1308.57,1985.73
							z"/>
					</g>
				</g>
				<g>
					<path class="st32" d="M1139.5,2579.38c13.77,22.32,40.38,32.56,65.47,40.38c0.24,0.07,0.48,0.14,0.72,0.22
						c9.69,3.01,19.43,5.87,29.24,8.64c58.4,16.42,118.07,28.14,178.32,35.28c9.83,1.17,19.71,2.22,29.57,3.15
						c178.77,16.71,361.52-6.56,530.67-67.16c47.57-17.04,94.35-37.09,138.5-61.51c30.91-17.09,60.53-36.3,88.31-58.19
						c16.68-13.18,33.13-28,45.59-45.09c8.95-12.22,15.87-25.61,19.4-40.38c8.85-36.9-4.73-75.06-18.07-110.55
						c-43.75-116.05-89.36-233.5-159.39-336.68c-58.43-86.07-135.64-160.41-234.09-198.01c-120.01-45.8-259.61-33.15-372.91,22.72
						c-35.08,17.3-68.19,38.26-98.31,62.13c-202.95,160.96-235.34,433.15-252.69,674.36
						C1128.11,2532.81,1126.77,2558.78,1139.5,2579.38z"/>
				</g>
				<g>
					<path class="st38" d="M1961.6,2353.03c1.77,15.82,8.67,30.64,17,44.21c33.9,55.33,90.4,92.66,133.39,141.12
						c30.9-17.08,60.52-36.3,88.3-58.18c16.7-13.17,33.13-27.99,45.6-45.09c-37.52-43.95-82.33-81.76-132.03-111.31
						c-28.05-16.68-58.88-31.05-91.52-31.53c-17.26-0.26-35.6,4.04-47.55,16.49C1963.78,2320.23,1959.83,2337.23,1961.6,2353.03z"/>
				</g>
				<g>
					<path class="st38" d="M1204.96,2619.76c0.24,0.07,0.48,0.14,0.72,0.22c9.69,3.01,19.43,5.87,29.24,8.64
						c58.4,16.42,118.07,28.14,178.32,35.28c38.81-68.55,75.23-138.81,93.78-215.07c5.27-21.62,8.47-46.49-4.85-64.3
						c-11.07-14.8-31.29-20.5-49.64-18.43c-18.38,2.12-35.25,10.84-51.12,20.36C1312.63,2439.7,1242.63,2523.36,1204.96,2619.76z"/>
				</g>
				<g>
					<path class="st40" d="M1712.92,1791.67c15.28,12.57,25.78,32.17,33.44,50.09c3.29,7.71-8.73,12.38-12.08,4.75
						c-7.73-17.61-18.86-31.43-29.22-47.33C1701.76,1794.12,1707.93,1787.56,1712.92,1791.67z"/>
				</g>
				<g>
					<path class="st40" d="M1625.72,1767.94c11.45,9.07,19.91,21.16,26.28,34.21c3.65,7.46-8.21,11.92-11.93,4.69
						c-5.94-11.57-13.71-21.64-21.98-31.61C1614.18,1770.5,1621.08,1764.26,1625.72,1767.94z"/>
				</g>
				<g>
					<path class="st40" d="M1692.53,1883c6.07,10.04,11.67,20.37,17.31,30.66c3.97,7.26-8.14,12-12.03,4.73
						c-5.28-9.85-10.58-19.71-15.43-29.78C1679.54,1882.7,1689.1,1877.32,1692.53,1883z"/>
				</g>
				<g>
					<path class="st40" d="M1586.96,1824.42c10.4,11.6,18.61,25.83,27.18,38.81c4.66,7.05-5.92,14.86-10.59,7.79
						c-8.88-13.44-18.95-26.9-25.77-41.53C1575.07,1823.69,1583.22,1820.25,1586.96,1824.42z"/>
				</g>
				<g>
					<path class="st40" d="M1645.71,1959.33c8.51,16.4,15.53,33.68,22.84,50.64c3.28,7.62-8.71,12.3-11.98,4.71
						c-7.29-16.94-15.02-33.9-21.07-51.33C1633.15,1956.55,1642.51,1953.17,1645.71,1959.33z"/>
				</g>
				<g>
					<path class="st40" d="M1727.51,2022.43c6.32,13.71,9.27,29.69,13.16,44.26c2.08,7.8-9.65,12.54-11.82,4.65
						c-4.12-15.01-9.85-30.92-11.35-46.45C1716.91,2018.89,1725.08,2017.17,1727.51,2022.43z"/>
				</g>
				<g>
					<path class="st40" d="M1626.65,2042.77c9.28,13.03,14.72,30.05,21.11,44.65c3.34,7.64-8.7,12.33-12.03,4.73
						c-6.41-14.65-15.04-30.08-18.34-45.78C1616.31,2041.23,1623.85,2038.84,1626.65,2042.77z"/>
				</g>
				<g>
					<path class="st40" d="M1691.8,2101.62c6.55,17.88,11.36,36.54,16.24,54.92c2.05,7.73-9.56,12.44-11.72,4.61
						c-5.19-18.84-10.6-37.95-14.05-57.2C1681.27,2098.42,1689.9,2096.43,1691.8,2101.62z"/>
				</g>
				<g>
					<path class="st40" d="M1668.21,2172.54c5.86,13.17,10.81,26.45,15.42,40.11c2.46,7.29-8.71,11.69-11.14,4.38
						c-4.69-14.11-8.82-28.09-12.19-42.56C1659.2,2169.79,1666.42,2168.51,1668.21,2172.54z"/>
				</g>
				<g>
					<path class="st40" d="M1722.33,2224.98c4.04,11.74,7.84,23.57,11.52,35.43c2.37,7.63-9.23,12.24-11.61,4.57
						c-3.69-11.88-7.26-23.8-10.58-35.8C1709.72,2222.21,1719.88,2217.89,1722.33,2224.98z"/>
				</g>
				<g>
					<path class="st40" d="M1562.23,1909.1c6.19,14.04,15.94,30.43,17.89,45.75c0.59,4.59-5.26,6.27-7.95,3.09
						c-5.03-5.94-7.84-13.76-11.08-20.79c-3.59-7.79-7.11-15.6-10.57-23.44C1547.24,1906.28,1558.97,1901.71,1562.23,1909.1z"/>
				</g>
				<g>
					<path class="st40" d="M1483.65,1807.99c13.11,11.48,24.54,25.76,31.16,42c2.36,5.79-6.56,11.12-9.86,5.44
						c-8.17-14.08-17.08-26.64-29.32-37.52C1469.51,1812.47,1477.45,1802.56,1483.65,1807.99z"/>
				</g>
				<g class="st34">
					<path d="M1254.5,1982.61c32.68-55.44,74.39-105.75,128.03-148.29c30.11-23.86,63.22-44.82,98.3-62.12
						c52.41-25.84,110.44-42.41,169.55-48.26c-21.74,16.17-41.88,34.51-60,53.06c-69.41,69.76-114.94,161-104.37,260.68
						c17.87,168.52,171.03,322.69,343.93,323.55c143.24-1.06,283.77-59.58,386.38-157.53c8.89,22.48,17.51,45.04,26.03,67.57
						c-85.89,115.2-230.47,188.28-371.6,203.24c-206.24,24.27-437.65-30.4-569.59-210.82
						C1240.44,2179.07,1229.63,2076.67,1254.5,1982.61z"/>
				</g>
				<g class="st35">
					<path d="M1254.5,1982.61c-24.87,94.06-14.05,196.46,46.66,281.09c131.94,180.42,363.35,235.09,569.59,210.82
						c141.13-14.97,285.71-88.04,371.6-203.24c1.63,4.3,3.25,8.59,4.87,12.88c13.36,35.5,26.94,73.66,18.08,110.55
						c-2.52,10.5-6.76,20.29-12.2,29.47c-77.62,53.07-162.69,94.11-255.62,113.7c-287.39,58.66-625.76,69.82-858.16-140.56
						C1154.19,2252.85,1182.26,2105.17,1254.5,1982.61z"/>
				</g>
				<g class="st7">
					<path d="M1129.84,2508.67c2.63-36.57,5.61-73.85,9.47-111.35c232.4,210.38,570.77,199.22,858.16,140.56
						c92.92-19.6,178-60.64,255.62-113.7c-2.22,3.74-4.61,7.38-7.2,10.92c-12.47,17.09-28.9,31.91-45.6,45.09
						c-27.78,21.88-57.4,41.1-88.3,58.18c-44.16,24.44-90.93,44.47-138.49,61.51c-169.17,60.61-351.92,83.88-530.68,67.17
						c-70.28-6.59-139.94-19.34-207.9-38.44c-9.8-2.75-19.53-5.63-29.24-8.64c-25.29-7.85-52.3-18.07-66.18-40.6
						C1126.78,2558.78,1128.1,2532.81,1129.84,2508.67z"/>
				</g>
				<g class="st37">
					<path class="st0" d="M1757.27,1761.48c33.15,4.16,65.01,15.59,95.31,29.66c43.6,20.25,84.8,46.29,119.49,79.57
						c34.69,33.27,62.76,73.97,78.38,119.43c4.69,13.64,8.07,29.37,1.01,41.95c-7.58,13.5-25.27,18.59-40.52,15.97
						c-15.26-2.62-28.67-11.35-41.51-20c-101.27-68.24-197.07-144.2-292.76-220.08c-17.65-13.99-23.13-32.11,1.23-40.12
						C1703.29,1759.5,1730.89,1758.17,1757.27,1761.48z"/>
				</g>
				<g>
					<g>
						<path class="st38" d="M1837.28,2161.9c5.54,5.51,10.5,11.8,13.3,19.1c2.8,7.3,3.27,15.72,0.03,22.84
							c-4.13,9.09-13.82,14.84-23.72,16.11c-9.9,1.27-19.95-1.41-29.04-5.55c-14.8-6.73-27.77-17.43-37.2-30.67
							c-10.87-15.27-14.32-47.45,11.05-50.13C1794.82,2131.16,1821.55,2146.25,1837.28,2161.9z"/>
					</g>
					<g>
						<path class="st41" d="M1771.7,2133.6c0.13-0.01,0.26-0.01,0.38-0.02c-3.59,10.56-3.25,23.44,0.04,34.16
							c8.2,26.67,31.81,48.12,57.77,51.66c-1,0.22-1.99,0.43-3,0.55c-9.9,1.26-19.95-1.41-29.04-5.55
							c-14.8-6.73-27.77-17.43-37.2-30.67C1749.78,2168.46,1746.34,2136.28,1771.7,2133.6z"/>
					</g>
				</g>
				<g>
					<g>
						<path class="st38" d="M1563.14,2195.83c-4.26,6.55-7.79,13.74-9,21.47c-1.21,7.72,0.1,16.06,4.76,22.34
							c5.94,8.02,16.62,11.62,26.57,10.78c9.95-0.84,19.21-5.57,27.23-11.52c13.06-9.69,23.5-22.87,29.94-37.79
							c7.43-17.21,4.05-49.4-21.31-46.7C1598.21,2156.86,1575.23,2177.22,1563.14,2195.83z"/>
					</g>
					<g>
						<path class="st41" d="M1621.32,2154.4c-0.13,0.01-0.25,0.04-0.38,0.06c5.73,9.57,8.1,22.24,7.12,33.41
							c-2.42,27.8-21.02,53.72-45.65,62.63c1.02,0.01,2.04,0,3.05-0.09c9.95-0.84,19.21-5.57,27.23-11.52
							c13.06-9.69,23.5-22.87,29.94-37.79C1650.07,2183.89,1646.69,2151.7,1621.32,2154.4z"/>
					</g>
				</g>
				<g>
					<g>
						<path class="st39" d="M1791.06,2287.29c-0.94,3.91-2.91,7.98-6.6,9.59c-3.2,1.4-7.07,0.56-9.9-1.48
							c-2.83-2.04-4.76-5.12-6.16-8.31c-2.54-5.8-3.57-12.26-2.94-18.56c0.81-8.17,7.82-17.49,16.63-12.15
							C1791.29,2261.94,1793.32,2277.92,1791.06,2287.29z"/>
					</g>
					<g class="st7">
						<path d="M1765.46,2268.53c0.34-3.42,1.77-7.02,3.95-9.68c-2.51,14.15,5.77,29,18.57,35.24c-0.95,1.19-2.1,2.17-3.52,2.79
							c-3.2,1.4-7.07,0.56-9.9-1.48c-2.83-2.04-4.76-5.12-6.16-8.31C1765.86,2281.29,1764.83,2274.83,1765.46,2268.53z"/>
					</g>
				</g>
				<g>
					<g>
						<path class="st39" d="M1678.72,2303.31c-0.94,3.91-2.91,7.98-6.6,9.59c-3.2,1.4-7.07,0.56-9.9-1.48
							c-2.83-2.04-4.76-5.12-6.16-8.31c-2.54-5.8-3.57-12.26-2.94-18.56c0.81-8.17,7.82-17.49,16.63-12.15
							C1678.95,2277.96,1680.98,2293.94,1678.72,2303.31z"/>
					</g>
					<g class="st7">
						<path d="M1653.12,2284.55c0.34-3.42,1.77-7.02,3.95-9.68c-2.51,14.15,5.77,29,18.57,35.24c-0.95,1.19-2.1,2.17-3.52,2.79
							c-3.2,1.4-7.07,0.56-9.9-1.48c-2.83-2.04-4.76-5.12-6.16-8.31C1653.52,2297.31,1652.5,2290.85,1653.12,2284.55z"/>
					</g>
				</g>
				<g>
					<g>
						<path class="st38" d="M1805.48,2328.79c30.41,21.28,54.99,53.92,66.6,84.26c7.72,20.17,12.1,41.84,10.7,63.38
							c-5.46,83.75-104.51,111.5-174.39,104.54c-0.97-0.1-1.94-0.2-2.91-0.31c-37.9-4.32-78.65-21.4-98.41-55.78
							c-21.15-36.82-13.11-80.09,5.03-116.34c17.21-34.41,43.36-68.25,77.28-87.4c25.11-14.17,54.15-18.31,81.84-9.56
							c3,0.95,5.96,2.02,8.87,3.22C1789.05,2318.47,1797.55,2323.24,1805.48,2328.79z"/>
					</g>
					<g class="st42">
						<path class="st41" d="M1630.1,2377.94c15.71-22.89,35.59-43.44,59.28-56.81c3.82-2.16,7.75-4.05,11.74-5.74
							c-18.64,14.52-33.12,33.94-39.79,54.58c-16.08,52.11,17.94,101.3,66.06,125c45.24,19.2,105.08,17.66,134.03-26.21
							c7.64-10.6,13.37-22.34,17.26-34.68c3.41,13.86,5.04,28.12,4.11,42.35c-1.59,24.34-11.11,43.91-25.48,59.31
							c-11.37,5.86-23.4,10.44-35.31,14.01c-65.2,18.91-130.18-5.4-171.82-58.58C1624.5,2457.12,1619.32,2415.29,1630.1,2377.94z"/>
					</g>
					<g>
						<path class="st41" d="M1612.1,2408.53c5.19-10.38,11.21-20.7,18-30.59c-10.78,37.35-5.6,79.18,20.07,113.23
							c41.64,53.19,106.62,77.5,171.82,58.58c11.9-3.56,23.94-8.14,35.31-14.01c-35.1,37.61-99.33,50.17-148.91,45.23
							c-0.97-0.1-1.94-0.2-2.91-0.31c-37.9-4.32-78.65-21.4-98.41-55.78C1585.92,2488.05,1593.96,2444.79,1612.1,2408.53z"/>
					</g>
					<g>
						<path class="st39" d="M1642.76,2456.93c10.32,18.37,29.82,25.45,49.09,16.06c17.87-8.71,28.92-27.85,47.34-35.26
							c1.73-0.7,3.41-1.14,5.06-1.46c-0.36-13.71,0-27.39-0.93-41.11c-0.97-14.45-2.83-28.79-5.17-43.08
							c-0.46-2.82,3.89-3.24,4.39-0.47c2.66,14.62,4.39,29.41,5.34,44.24c0.84,13.17,1.52,26.75,0.38,39.96
							c12.29-0.29,22.7,8.58,34.28,13.49c20.27,8.6,41.85-2.6,50.01-22.2c0.43-1.04,2.22-0.55,1.93,0.58
							c-3.54,13.67-13.95,24.23-27.75,27.7c-15.72,3.94-27.75-2.9-41.13-10.08c-7.87-4.22-16.03-6.89-24.75-3.37
							c-8.58,3.46-15.49,10.52-22.23,16.65c-12.13,11.02-25.92,22.84-43.17,23.51c-15.79,0.61-29.39-9.5-36.61-22.99
							C1637.64,2456.86,1641.51,2454.7,1642.76,2456.93z"/>
					</g>
					<g>
						<g>
							<path class="st39" d="M1764.21,2326.9c2.3,0.76,4.62,1.65,6.49,3.18c1.88,1.54,3.27,3.84,3.16,6.26
								c-0.09,2.04-1.21,3.89-2.48,5.49c-5.48,6.93-14.09,10.73-22.72,12.58c-15.18,3.26-31.46,1.11-45.28-5.97
								c-3.05-1.56-6.14-3.52-7.67-6.59c-5.78-11.56,20.54-16.5,27.64-17.75C1736.92,2321.7,1751.11,2322.57,1764.21,2326.9z"/>
						</g>
						<g class="st34">
							<path d="M1717.98,2325.16c4.52,5.75,10.81,10.21,19.14,12.78c11.48,2.52,23.77-0.89,32.54-8.59
								c0.35,0.23,0.71,0.46,1.04,0.73c0.77,0.63,1.44,1.39,1.98,2.23c-21.24,15.35-50.53,15.42-66.56-3.74
								C1710.1,2327.04,1714.45,2325.93,1717.98,2325.16z"/>
						</g>
						<g class="st35">
							<path d="M1706.13,2328.56c16.04,19.17,45.32,19.1,66.56,3.74c0.77,1.22,1.24,2.6,1.18,4.03c-0.04,0.83-0.28,1.62-0.59,2.38
								c-12.16,8.67-28.61,11.99-44.38,12.08c-13.71,0.08-24.27-7.24-31.24-17.51C1699.73,2331.4,1702.8,2329.84,1706.13,2328.56z"
								/>
						</g>
						<g class="st7">
							<path d="M1697.65,2333.3c6.97,10.27,17.52,17.59,31.24,17.51c15.77-0.09,32.22-3.41,44.38-12.08
								c-0.46,1.11-1.13,2.16-1.88,3.11c-5.49,6.93-14.09,10.73-22.72,12.58c-15.18,3.26-31.46,1.11-45.28-5.97
								c-3.05-1.56-6.14-3.52-7.67-6.58C1694.01,2338.46,1695.1,2335.63,1697.65,2333.3z"/>
						</g>
						<g class="st7">
							<path class="st0" d="M1747.76,2325.31c3.72,0.53,7.46,1.35,10.79,3.1c0.86,0.45,1.8,1.18,1.68,2.15
								c-0.09,0.78-0.85,1.3-1.57,1.62c-1.75,0.77-3.68,1.01-5.59,1.16c-7.84,0.61-15.79-0.28-23.3-2.6
								c-1.63-0.5-3.31-1.12-4.43-2.41c-0.4-0.46-0.72-1.02-0.71-1.62c0.01-1.52,1.72-1.47,2.8-1.6c1.65-0.2,3.3-0.34,4.96-0.44
								c3.29-0.19,6.59-0.16,9.88,0.07C1744.1,2324.86,1745.93,2325.06,1747.76,2325.31z"/>
						</g>
					</g>
				</g>
				<g>
					<g>
						<path class="st43" d="M1813.65,2495.96c-2.97,2.94-6.1,5.73-9.4,8.28c-22.05,17-50.57,24.83-78.37,23.35
							c-21.11-1.12-42.15-7.56-59.3-19.92c-9.21-6.64-17.21-15.05-23.3-24.61C1694.69,2454.07,1765.1,2462.17,1813.65,2495.96z"/>
					</g>
					<g>
						<path class="st44" d="M1632.22,2456.12c1.96,9.59,5.8,18.69,11.05,26.95c51.41-29,121.82-20.88,170.37,12.89
							c16.85-16.68,27.95-39.24,29.31-62.87c0.43-7.61-0.07-19.36-10.45-21.74c-6.71-1.53-13.2-0.02-21.93,2.46
							c-6.06,1.72-13.2,3.89-22.27,5.82c-18.19,3.91-44.08,6.85-84.42,3.15c-2.27-0.21-4.44-0.48-6.47-0.79
							c-7.73-1.17-13.91-2.98-19.09-4.82c-12.6-4.56-19.26-9.45-27.73-6.3c-8.33,3.08-14.56,10.57-17.42,18.97
							C1630.29,2438.22,1630.48,2447.44,1632.22,2456.12z"/>
					</g>
					<g>
						<path class="st0" d="M1800.37,2443.38c-2.42-1.3-6.4-9.8-9.82-18.11c6.12-0.96,12.2-2.01,18.21-3.12
							C1806.22,2433.33,1802.93,2444.76,1800.37,2443.38z"/>
					</g>
					<g>
						<path class="st45" d="M1810.56,2413.81c-0.53,2.62-1.14,5.48-1.8,8.35c-6.01,1.11-12.09,2.16-18.21,3.12
							c-0.79-1.92-1.55-3.83-2.26-5.64C1797.36,2417.7,1804.5,2415.52,1810.56,2413.81z"/>
					</g>
					<g>
						<path class="st45" d="M1678.31,2417.17c5.18,1.84,11.36,3.65,19.09,4.82c-0.64,1.38-1.32,2.82-2.01,4.26
							c-5.41-1.11-10.76-2.5-16.03-4.18C1679,2420.41,1678.64,2418.76,1678.31,2417.17z"/>
					</g>
					<g>
						<path class="st0" d="M1695.4,2426.25c-3.89,8.12-8.25,16.32-9.81,15.91c-1.55-0.41-4.09-10.39-6.23-20.1
							C1684.64,2423.75,1689.98,2425.14,1695.4,2426.25z"/>
					</g>
					<g class="st7">
						<path d="M1632.22,2456.12c1.96,9.59,5.8,18.69,11.05,26.95c6.11,9.57,14.11,17.97,23.3,24.61c4.73,3.41,9.74,6.35,14.96,8.85
							c-3.44-1.84-6.75-3.91-9.93-6.21c-8.76-6.32-16.4-14.34-22.2-23.46c-5.01-7.88-8.66-16.54-10.53-25.68
							c-1.67-8.28-1.86-17.07,0.88-25.04c2.72-8.02,8.66-15.16,16.59-18.09c8.09-3.01,14.44,1.67,26.45,6.01
							c4.94,1.74,10.84,3.48,18.19,4.58c1.93,0.31,4.01,0.55,6.18,0.76c38.43,3.53,63.11,0.72,80.46-3.01
							c8.64-1.84,15.44-3.91,21.22-5.56c8.33-2.36,14.51-3.79,20.91-2.34c9.88,2.29,10.36,13.46,9.95,20.74
							c-0.81,14.06-5.23,27.73-12.36,39.91c9.02-13.77,14.65-29.67,15.61-46.06c0.43-7.61-0.07-19.36-10.45-21.74
							c-6.71-1.53-13.2-0.02-21.93,2.46c-6.06,1.72-13.2,3.89-22.27,5.82c-18.19,3.91-44.08,6.85-84.42,3.15
							c-2.27-0.21-4.44-0.48-6.47-0.79c-7.73-1.17-13.91-2.98-19.09-4.82c-12.6-4.56-19.26-9.45-27.73-6.3
							c-8.33,3.08-14.56,10.57-17.42,18.97C1630.29,2438.22,1630.48,2447.44,1632.22,2456.12z"/>
					</g>
				</g>
			</g>
			<g>
				<g>
					<path class="st33" d="M1872.62,2995.75c1.99-5.27,4.2-10.48,6.69-15.62c6.36-13.12,15.6-25.31,30.77-27.67
						c12.75-1.98,28.82,2.64,32.45,16.59c7.44-11.16,22.76-16.34,35.44-11.97c12.68,4.37,21.56,17.88,20.54,31.26
						c13.27-13.77,34.94-15.58,47.43-1.1c24.65,28.59,18.45,122.79-49.2,186.96c-25.41,24.1-61.54,48-98.24,44.28
						c-40.77-4.13-61.54-41.59-57.97-79.59c2.2-23.44,9.15-46.76,13.83-69.75C1859.4,3044.43,1863.68,3019.44,1872.62,2995.75z"/>
				</g>
				<g>
					<g>
						<path class="st46" d="M1907.92,3075.83c25.65-6.88,52.38,3.63,64.63,27.72c10.83,21.31,5.86,47.44-8.22,66.01
							c-8.98,11.85-22.05,21.06-36.76,23.22c-24.42,3.58-48.95-12.36-59.73-33.76c-8.28-16.43-9.52-36.8-0.3-53.01
							C1876.06,3090.99,1891.39,3080.26,1907.92,3075.83z"/>
					</g>
					<g class="st47">
						<path d="M1896.91,3079.82c3.57-1.63,7.25-2.98,11.01-3.99c0.68-0.18,1.37-0.31,2.06-0.46c-6.09,4.78-11.31,10.63-14.63,18.38
							c-7.79,20.77-5.19,46.74,15.58,62.32c20.77,12.98,44.15,7.79,62.32-5.19c0.62-0.54,1.17-1.14,1.76-1.71
							c-2.42,7.32-6.05,14.27-10.69,20.39c-2.38,3.13-5.04,6.08-7.95,8.76c-27.48,6.98-59.89-3.68-71.42-30.03
							C1874.52,3123.47,1881.15,3098.01,1896.91,3079.82z"/>
					</g>
					<g class="st37">
						<path d="M1867.53,3106c6.59-11.6,17.25-20.63,29.38-26.19c-15.77,18.2-22.4,43.65-11.95,68.46
							c11.53,26.35,43.95,37.01,71.42,30.03c-8.07,7.46-18,12.88-28.82,14.46c-24.42,3.58-48.95-12.36-59.73-33.76
							C1859.56,3142.59,1858.31,3122.21,1867.53,3106z"/>
					</g>
				</g>
				<g>
					<g>
						<path class="st46" d="M2047.42,3017.07c4.48,15.87,1.57,35.29-15.72,41.77c-5.48,2.05-11.78,2.09-17.1-0.34
							c-19.81-9.04-18.72-40.44-7.93-55.88c3.34-4.78,8.61-9.4,14.16-11.38c12.34-4.39,20.28,8.83,24.09,18.46
							C2045.85,3012.06,2046.7,3014.53,2047.42,3017.07z"/>
					</g>
					<g class="st37">
						<path d="M2000.89,3015.51c0.25,8.09,2.86,16.17,8.72,23.7c8.54,9.97,21.77,12.87,34.12,10.5c-2.8,3.94-6.73,7.14-12.02,9.13
							c-5.48,2.05-11.78,2.09-17.1-0.34C1999.4,3051.56,1996.54,3031.46,2000.89,3015.51z"/>
					</g>
					<g class="st47">
						<path d="M2006.67,3002.62c0.72-1.03,1.54-2.04,2.42-3.02c-3.72,7.08-4.39,15.18,0.53,24.03c9.58,13.41,26.22,16.9,39.51,10.52
							c-0.52,5.68-2.21,11.1-5.39,15.56c-12.35,2.38-25.57-0.53-34.12-10.5c-5.86-7.53-8.47-15.61-8.72-23.7
							C2002.21,3010.68,2004.16,3006.21,2006.67,3002.62z"/>
					</g>
				</g>
				<g>
					<g>
						<path class="st46" d="M1988.3,3001.26c2,16.37-3.83,35.11-21.9,38.88c-5.73,1.19-11.96,0.27-16.85-2.94
							c-18.2-11.95-12.33-42.82,0.68-56.43c4.03-4.21,9.95-7.98,15.73-9.09c12.87-2.46,18.7,11.82,20.99,21.92
							C1987.51,2996.08,1987.98,2998.65,1988.3,3001.26z"/>
					</g>
					<g class="st37">
						<path d="M1942.55,2992.63c-0.98,8.04,0.36,16.41,5,24.75c6.92,11.16,19.55,16.04,32.12,15.58c-3.37,3.47-7.74,6.03-13.28,7.19
							c-5.73,1.19-11.96,0.27-16.85-2.94C1935.58,3028.03,1935.81,3007.73,1942.55,2992.63z"/>
					</g>
					<g class="st47">
						<path d="M1950.23,2980.77c0.86-0.9,1.83-1.78,2.85-2.62c-4.75,6.43-6.66,14.34-3.15,23.83c7.42,14.72,23.34,20.7,37.44,16.42
							c-1.38,5.53-3.88,10.63-7.7,14.56c-12.57,0.46-25.19-4.42-32.12-15.58c-4.64-8.34-5.99-16.72-5-24.75
							C1944.59,2988.05,1947.2,2983.93,1950.23,2980.77z"/>
					</g>
				</g>
				<g>
					<g>
						<path class="st46" d="M1933.42,2992.16c0.1,16.49-7.86,34.44-26.25,36.09c-5.83,0.52-11.91-1.12-16.39-4.87
							c-16.7-13.98-7.3-43.96,7.2-55.98c4.49-3.72,10.8-6.78,16.68-7.21c13.06-0.96,17.21,13.9,18.32,24.19
							C1933.24,2986.92,1933.4,2989.53,1933.42,2992.16z"/>
					</g>
					<g class="st37">
						<path d="M1888.98,2978.3c-1.91,7.87-1.54,16.34,2.11,25.17c5.59,11.88,17.57,18.19,30.1,19.18c-3.74,3.05-8.39,5.1-14.02,5.61
							c-5.83,0.52-11.91-1.12-16.39-4.87C1877.96,3012.65,1880.54,2992.52,1888.98,2978.3z"/>
					</g>
					<g class="st47">
						<path d="M1897.97,2967.41c0.96-0.8,2.02-1.56,3.13-2.27c-5.46,5.84-8.27,13.47-5.88,23.31c5.67,15.48,20.79,23.25,35.29,20.63
							c-2.01,5.34-5.08,10.11-9.33,13.57c-12.54-0.99-24.51-7.3-30.1-19.18c-3.65-8.82-4.02-17.3-2.11-25.17
							C1891.53,2973.99,1894.6,2970.2,1897.97,2967.41z"/>
					</g>
				</g>
				<g class="st7">
					<path d="M1840.54,3138.89c2.2-23.44,9.15-46.76,13.83-69.75c5.03-24.71,9.32-49.71,18.25-73.39c1.99-5.27,4.2-10.48,6.69-15.62
						c6.36-13.12,15.6-25.31,30.77-27.67c1.18-0.18,2.4-0.29,3.63-0.36c-44.14,72.06-67.14,170.98-5.37,235.13
						c12.27,13.29,28.57,18.51,45.73,18.39c-17.4,9.21-36.4,14.8-55.55,12.86C1857.74,3214.35,1836.97,3176.89,1840.54,3138.89z"/>
				</g>
				<g class="st37">
					<path d="M1913.7,2952.1c12-0.67,25.53,4.29,28.83,16.95c7.44-11.16,22.76-16.34,35.44-11.97
						c12.68,4.37,21.56,17.88,20.54,31.26c13.27-13.77,34.94-15.58,47.43-1.1c3.57,4.14,6.46,9.68,8.65,16.27
						c-10.42,1.87-20.64,4.74-29.4,7.13c-23.37,5.19-41.55-18.18-62.32-25.97c-33.76-12.98-46.74,28.57-49.34,54.53
						c-2.6,38.95-2.6,83.1,25.97,109.07c22.25,22.25,47.54,22.45,71.26,11.18c-4.35,5.05-8.99,9.99-14.01,14.75
						c-12.15,11.52-26.75,22.99-42.68,31.42c-17.15,0.12-33.46-5.1-45.73-18.39C1846.56,3123.08,1869.57,3024.16,1913.7,2952.1z"/>
				</g>
			</g>
			<g>
				<g>
					<path class="st33" d="M1538.99,2969.4c-2.9-5.24-6.03-10.38-9.45-15.41c-8.72-12.84-20.31-24.25-36.65-24.39
						c-13.73-0.12-29.93,7.21-31.61,22.46c-9.55-10.61-26.47-13.69-39.15-7.14c-12.68,6.55-19.95,22.14-16.81,36.07
						c-16.09-12.45-39.19-11.03-50.11,6.14c-21.55,33.89-0.52,132.11,80.59,189.25c30.46,21.46,72.18,41.05,110.24,31.49
						c42.28-10.63,58.38-53.26,48.77-92.72c-5.93-24.33-16.83-47.82-25.3-71.3C1560.41,3018.62,1552.05,2992.96,1538.99,2969.4z"/>
				</g>
				<g>
					<g>
						<path class="st46" d="M1514.16,3059.14c-28.06-3.29-54.59,11.88-63.77,39.13c-8.12,24.1,1.14,50.84,18.82,68.22
							c11.28,11.09,26.46,18.78,42.28,18.78c26.26,0.01,49.63-20.55,57.69-44.74c6.18-18.57,4.35-40.21-7.85-55.85
							C1550.03,3070.2,1532.25,3061.26,1514.16,3059.14z"/>
					</g>
					<g class="st47">
						<path d="M1526.36,3061.65c-4.01-1.17-8.09-2.02-12.2-2.5c-0.75-0.09-1.49-0.11-2.23-0.17c7.15,4.09,13.54,9.45,18.23,17.09
							c11.4,20.67,12.67,48.41-6.81,68.01c-19.87,16.87-45.27,15-66.41,4.13c-0.74-0.48-1.41-1.02-2.12-1.53
							c3.68,7.33,8.56,14.09,14.39,19.82c2.98,2.93,6.25,5.62,9.71,8c30,3.11,62.48-13.1,70.56-42.62
							C1556.66,3104.15,1545.76,3078.38,1526.36,3061.65z"/>
					</g>
					<g class="st37">
						<path d="M1561.33,3084.69c-8.73-11.19-21.34-19.06-34.96-23.04c19.4,16.73,30.3,42.51,23.12,70.23
							c-8.08,29.52-40.56,45.73-70.56,42.62c9.65,6.61,20.93,10.78,32.56,10.79c26.26,0.01,49.63-20.55,57.69-44.74
							C1575.35,3121.98,1573.52,3100.33,1561.33,3084.69z"/>
					</g>
				</g>
				<g>
					<g>
						<path class="st46" d="M1358.26,3018.76c-2.27,17.4,3.78,37.39,22.98,41.55c6.08,1.32,12.72,0.39,17.95-2.99
							c19.46-12.57,13.48-45.45-0.25-60.04c-4.25-4.51-10.51-8.57-16.66-9.8c-13.67-2.72-19.99,12.42-22.51,23.14
							C1359.14,3013.25,1358.62,3015.98,1358.26,3018.76z"/>
					</g>
					<g class="st37">
						<path d="M1407,3009.96c0.98,8.56-0.52,17.46-5.53,26.29c-7.46,11.81-20.94,16.9-34.3,16.3c3.55,3.72,8.18,6.48,14.06,7.76
							c6.08,1.32,12.72,0.39,17.95-2.99C1414.12,3047.68,1414.04,3026.08,1407,3009.96z"/>
					</g>
					<g class="st47">
						<path d="M1398.93,2997.28c-0.91-0.97-1.93-1.91-3.01-2.81c5,6.88,6.96,15.31,3.15,25.38c-8.02,15.6-25,21.82-39.97,17.15
							c1.42,5.9,4.04,11.34,8.07,15.55c13.37,0.6,26.84-4.49,34.3-16.3c5.01-8.83,6.51-17.74,5.53-26.29
							C1404.87,3005.07,1402.12,3000.67,1398.93,2997.28z"/>
					</g>
				</g>
				<g>
					<g>
						<path class="st46" d="M1418.06,2993.02c0.41,17.54,9.44,36.38,29.05,37.56c6.21,0.37,12.63-1.56,17.28-5.69
							c17.32-15.39,6.39-46.98-9.41-59.3c-4.89-3.81-11.7-6.87-17.96-7.14c-13.92-0.61-17.86,15.33-18.72,26.3
							C1418.09,2987.44,1418,2990.22,1418.06,2993.02z"/>
					</g>
					<g class="st37">
						<path d="M1464.89,2976.88c2.27,8.31,2.15,17.33-1.46,26.83c-5.57,12.81-18.11,19.9-31.41,21.34
							c4.08,3.13,9.08,5.16,15.08,5.52c6.21,0.37,12.63-1.56,17.28-5.69C1477.68,3013.08,1474.31,2991.75,1464.89,2976.88z"/>
					</g>
					<g class="st47">
						<path d="M1454.98,2965.58c-1.05-0.82-2.2-1.59-3.4-2.32c5.99,6.04,9.22,14.07,6.98,24.6c-5.55,16.64-21.38,25.38-36.89,23.05
							c2.3,5.61,5.72,10.59,10.35,14.14c13.3-1.45,25.84-8.54,31.41-21.34c3.6-9.49,3.73-18.52,1.46-26.83
							C1462.04,2972.38,1458.66,2968.45,1454.98,2965.58z"/>
					</g>
				</g>
				<g>
					<g>
						<path class="st46" d="M1474.43,2974.99c2.44,17.38,13.58,35.04,33.19,33.95c6.22-0.35,12.36-3.01,16.51-7.65
							c15.43-17.28,0.92-47.4-16.2-57.82c-5.29-3.22-12.42-5.47-18.67-5.02c-13.9,1.01-15.97,17.29-15.56,28.29
							C1473.82,2969.44,1474.04,2972.22,1474.43,2974.99z"/>
					</g>
					<g class="st37">
						<path d="M1519.09,2953.55c3.22,7.99,4.14,16.97,1.65,26.82c-4.05,13.37-15.69,21.86-28.74,24.83
							c4.41,2.64,9.61,4.08,15.62,3.74c6.22-0.35,12.36-3.01,16.51-7.65C1535.97,2988.02,1530.16,2967.23,1519.09,2953.55z"/>
					</g>
					<g class="st47">
						<path d="M1507.94,2943.47c-1.14-0.69-2.37-1.33-3.65-1.91c6.65,5.3,10.78,12.91,9.78,23.63
							c-3.59,17.17-18.3,27.68-33.98,27.16c2.93,5.31,6.91,9.86,11.91,12.85c13.04-2.97,24.68-11.46,28.74-24.83
							c2.48-9.85,1.56-18.83-1.65-26.82C1515.73,2949.41,1511.91,2945.89,1507.94,2943.47z"/>
					</g>
				</g>
				<g class="st7">
					<path d="M1594.81,3115.15c-5.93-24.33-16.83-47.82-25.3-71.3c-9.1-25.24-17.46-50.89-30.52-74.45
						c-2.9-5.24-6.03-10.38-9.45-15.41c-8.72-12.84-20.32-24.24-36.65-24.39c-1.27-0.01-2.57,0.06-3.87,0.18
						c57.56,69.06,97.01,169.66,41.86,246.7c-10.87,15.89-27.23,23.89-45.31,26.4c19.74,7.01,40.6,9.98,60.46,4.98
						C1588.32,3197.24,1604.42,3154.61,1594.81,3115.15z"/>
				</g>
				<g class="st37">
					<path d="M1489.02,2929.78c-12.74,1.15-26.22,8.45-27.74,22.28c-9.55-10.61-26.47-13.69-39.15-7.14
						c-12.68,6.55-19.95,22.15-16.81,36.07c-16.09-12.45-39.19-11.03-50.11,6.15c-3.12,4.9-5.31,11.19-6.6,18.46
						c11.25,0.36,22.46,1.81,32.05,2.98c25.4,1.87,40.94-25.53,61.61-36.93c33.54-18.87,53.61,22.87,60.34,49.81
						c8.73,40.61,15.53,87.08-10.54,118.82c-20,26.86-46.59,30.95-73.29,22.74c5.36,4.65,11,9.13,17.02,13.37
						c14.56,10.26,31.7,20.08,49.77,26.5c18.08-2.52,34.44-10.52,45.31-26.4C1586.03,3099.44,1546.58,2998.84,1489.02,2929.78z"/>
				</g>
			</g>
		</g>
	</g>
</g>
</svg>
